<?xml version="1.0" standalone="no"?>
<!DOCTYPE svg PUBLIC "-//W3C//DTD SVG 1.1//EN" "http://www.w3.org/Graphics/SVG/1.1/DTD/svg11.dtd">
<svg xmlns="http://www.w3.org/2000/svg">
<defs >
<font id="BodoniModa" horiz-adv-x="1155" ><font-face
    font-family="Bodoni Moda 11pt ExtraBold"
    units-per-em="2000"
    panose-1="0 0 0 0 0 0 0 0 0 0"
    ascent="2250"
    descent="-800"
    alphabetic="0" />
<glyph unicode=" " horiz-adv-x="500" />
<glyph unicode="!" horiz-adv-x="813" d="M385 562Q385 648 360 730T300 896T237 1070T199 1259Q199 1270 199 1279T199 1297Q199 1388 250 1452T405 1516Q509 1516 561 1452T613 1297Q613 1288 613 1279T611 1259Q603 1160 574 1071T511 897T451 730T425 562H385ZM407
-20Q350 -20 303 8T228 83T199 188Q199 245 227 292T303 368T407 396Q464 396 511 368T587 293T615 188Q615 131 587 84T512 8T407 -20Z" />
<glyph unicode="&quot;" horiz-adv-x="1060" d="M755 874Q755 957 733 1013T679 1114T622 1203T588 1303Q587 1314 587 1322T586 1339Q586 1420 642 1470T774 1520Q851 1520 906 1470T962 1339Q962 1330 962 1322T960 1303Q952 1247 926 1203T869 1115T816 1014T793
874H755ZM269 874Q269 957 247 1013T193 1114T136 1203T102 1303Q101 1314 101 1322T100 1339Q100 1420 156 1470T288 1520Q365 1520 420 1470T476 1339Q476 1330 476 1322T474 1303Q466 1247 440 1203T383 1115T330 1014T307 874H269Z" />
<glyph unicode="#" horiz-adv-x="1276" d="M703 -12L903 1508L942 1510L742 -10L703 -12ZM60 485V525H1157V485H60ZM315 -10L515 1510H553L353 -10H315ZM120 1006V1045H1216V1006H120Z" />
<glyph unicode="$" horiz-adv-x="1225" d="M614 -29Q430 -29 305 25T117 159T54 319Q54 405 104 466T237 527Q279 527 320 506T388 446T416 351Q416 300 391 261T326 199T241 176Q198 176 155 194T84 244T56 319L97 305Q97 238 155 169T327 52T605 5Q750 5 828
72T906 254Q906 338 863 392T748 486T591 559T420 634T264 734T149 882T105 1101Q105 1197 147 1274T260 1406T421 1490T603 1520Q726 1520 834 1480T1009 1370T1076 1207Q1076 1129 1030 1073T901 1017Q860 1017 819 1037T751 1096T723 1185Q723 1256 769 1304T885
1353Q928 1353 972 1335T1045 1284T1074 1207H1036Q1036 1291 975 1352T815 1448T606 1483Q517 1483 460 1458T376 1388T348 1281Q348 1206 391 1155T505 1065T662 990T832 911T988 808T1102 662T1146 449Q1146 303 1077 196T887 30T614 -29ZM483 -160V1660H523V-160H483ZM633
-160V1660H672V-160H633Z" />
<glyph unicode="%" horiz-adv-x="2057" d="M490 0L1523 1500H1568L536 0H490ZM529 640Q444 640 362 668T215 753T110 891T70 1080Q70 1187 109 1269T214 1407T362 1491T529 1520Q614 1520 695 1492T843 1407T947 1269T986 1080Q986 973 942 891T828 753T678 669T529
640ZM529 679Q557 679 577 701T610 770T629 894T635 1080Q635 1189 629 1265T610 1389T577 1459T529 1481Q501 1481 481 1459T448 1390T429 1266T422 1080Q422 971 428 895T447 771T480 701T529 679ZM1529 -20Q1444 -20 1363 8T1215 93T1110 231T1071 420Q1071
527 1110 609T1215 747T1362 831T1529 860Q1614 860 1696 832T1844 747T1949 609T1989 420Q1989 313 1944 231T1829 93T1679 9T1529 -20ZM1529 19Q1557 19 1577 41T1610 110T1630 234T1636 420Q1636 529 1630 605T1611 729T1577 799T1529 821Q1501 821 1481 799T1448
730T1429 606T1423 420Q1423 311 1429 235T1448 111T1481 41T1529 19Z" />
<glyph unicode="&amp;" horiz-adv-x="1775" d="M1085 0L423 980Q384 1037 358 1105T331 1226Q331 1316 393 1382T569 1484T835 1520Q979 1520 1082 1491T1241 1409T1296 1284Q1296 1219 1263 1168T1170 1075T1034 1002T869 942L847 972Q867 987 890 1013T929 1101T946
1282Q946 1338 936 1384T901 1458T828 1485Q784 1485 756 1462T715 1402T702 1324Q702 1261 745 1169T853 980L1475 39H1728V0H1085ZM582 -20Q412 -20 300 29T133 164T77 356Q77 453 114 527T210 654T332 743T450 801T532 837L550 806Q520 789 498 761T463 688T451
575Q451 489 471 402T534 240T641 121T794 75Q888 75 978 118T1149 238T1292 421T1397 650T1453 910H1491Q1478 777 1434 645T1315 393T1134 180T891 34T582 -20ZM1205 881V920H1685V881H1205Z" />
<glyph unicode="&apos;" horiz-adv-x="574" d="M269 874Q269 957 247 1013T193 1114T136 1203T102 1303Q101 1314 101 1322T100 1339Q100 1420 156 1470T288 1520Q365 1520 420 1470T476 1339Q476 1330 476 1322T474 1303Q466 1247 440 1203T383 1115T330 1014T307
874H269Z" />
<glyph unicode="(" horiz-adv-x="759" d="M716 -340Q594 -287 488 -192T301 32T176 318T130 650Q130 883 208 1072T420 1395T716 1600L733 1572Q668 1529 623 1434T549 1212T509 939T496 650Q496 506 508 355T549 69T622 -167T733 -311L716 -340Z" />
<glyph unicode=")" horiz-adv-x="765" d="M49 -340L32 -312Q97 -269 142 -174T216 48T257 321T270 610Q270 754 257 905T216 1191T143 1427T32 1571L49 1600Q171 1548 277 1453T464 1228T589 942T635 610Q635 377 557 188T345 -135T49 -340Z" />
<glyph unicode="*" horiz-adv-x="1256" d="M628 228Q552 228 504 278T455 408Q455 417 455 425T457 444Q464 497 486 538T535 621T582 714T607 837Q547 797 514 754T457 667T409 583T342 511Q334 504 327 500T312 491Q243 451 175 468T69 551Q31 617 50 684T139
791Q147 796 154 799T171 807Q220 827 267 829T363 829T466 834T585 874Q520 906 466 913T363 919T267 919T171 941Q161 945 154 949T139 957Q69 997 50 1064T69 1197Q107 1263 175 1279T312 1256Q320 1252 327 1248T342 1236Q384 1204 409 1164T457 1081T513 994T607
911Q603 982 582 1033T535 1126T487 1208T457 1303Q456 1314 456 1322T455 1339Q455 1420 503 1470T628 1520Q705 1520 753 1470T802 1339Q802 1330 802 1322T800 1303Q793 1250 771 1209T722 1126T675 1034T650 911Q710 951 743 994T800 1080T848 1164T915 1236Q923
1243 930 1247T945 1256Q1015 1296 1082 1280T1188 1197Q1226 1131 1207 1064T1118 957Q1111 953 1104 949T1086 941Q1037 921 990 919T894 919T791 914T672 874Q736 842 790 834T893 828T989 829T1086 807Q1096 803 1103 800T1118 791Q1188 751 1207 684T1188
551Q1150 485 1083 468T945 491Q938 496 931 500T915 511Q873 543 848 583T800 666T744 753T650 837Q654 765 674 714T721 622T770 539T800 444Q802 434 802 426T802 408Q802 328 754 278T628 228Z" />
<glyph unicode="+" horiz-adv-x="1059" d="M311 561V982H748V561H311ZM319 553V990H740V553H319Z" />
<glyph unicode="," horiz-adv-x="611" d="M76 -310V-270Q166 -270 245 -242T381 -158T466 -22T482 161H495Q496 117 467 76T389 7T287 -20Q190 -20 135 42T80 186Q80 241 110 288T191 363T302 392Q363 392 415 358T498 262T530 114Q530 -8 474 -104T316 -255T76 -310Z" />
<glyph unicode="-" horiz-adv-x="718" d="M120 531V569H600V531H120Z" />
<glyph unicode="." horiz-adv-x="574" d="M288 -20Q230 -20 183 8T108 83T80 188Q80 245 108 292T183 368T288 396Q345 396 392 368T468 293T496 188Q496 131 468 84T393 8T288 -20Z" />
<glyph unicode="/" horiz-adv-x="1056" d="M80 -300L938 1561H977L119 -300H80Z" />
<glyph unicode="0" horiz-adv-x="1355" d="M679 -20Q546 -20 436 37T246 199T124 444T80 750Q80 915 126 1055T253 1300T444 1462T679 1520Q805 1520 913 1463T1104 1301T1231 1056T1277 750Q1277 585 1234 445T1112 200T922 38T679 -20ZM679 17Q747 17 785 69T842
219T866 451T871 750Q871 914 866 1048T841 1280T783 1430T679 1483Q618 1483 581 1431T522 1281T494 1049T486 750Q486 586 491 452T514 220T572 70T679 17Z" />
<glyph unicode="1" horiz-adv-x="1044" d="M360 11V1461H134V1500H726V11H360ZM100 0V39H946V0H100Z" />
<glyph unicode="2" horiz-adv-x="1245" d="M80 0V232L501 537Q629 628 694 748T759 1041Q759 1159 725 1250T628 1392T479 1444Q392 1444 313 1402T185 1279T138 1080H102Q102 1123 135 1162T219 1227T325 1252Q377 1252 424 1226T501 1154T531 1052Q531 990 502
943T424 870T318 843Q261 843 211 872T131 955T100 1080Q97 1208 161 1307T344 1463T623 1520Q782 1520 896 1470T1072 1334T1134 1141Q1134 1052 1101 983T1012 858T892 757T762 668L337 356H1136V506H1175V0H80Z" />
<glyph unicode="3" horiz-adv-x="1187" d="M535 -20Q375 -20 267 34T105 171T50 341Q50 430 106 486T243 542Q316 542 369 491T423 358Q423 308 397 268T328 204T237 180Q190 180 148 202T79 261T52 341H90Q90 258 142 187T279 71T466 26Q559 26 617 74T703 210T731
415Q731 472 718 537T670 659T572 754T410 791V816Q591 816 723 783T940 691T1067 558T1108 400Q1108 303 1059 225T928 93T743 9T535 -20ZM410 805V830Q502 830 554 863T632 949T664 1060T671 1170Q671 1227 662 1281T631 1379T575 1447T489 1472Q442 1472 384
1454T273 1401T184 1318T149 1208H111Q111 1257 139 1294T211 1353T298 1375Q346 1375 388 1352T457 1289T484 1195Q484 1137 456 1096T384 1033T298 1011Q250 1011 207 1035T136 1104T109 1208Q109 1273 149 1329T256 1428T400 1494T555 1518Q639 1518 725 1497T885
1433T1003 1328T1048 1182Q1048 1107 1014 1039T903 919T705 836T410 805Z" />
<glyph unicode="4" horiz-adv-x="1320" d="M526 0V39H716V1283L139 450H1302V411H68L819 1500H1082V39H1232V0H526Z" />
<glyph unicode="5" horiz-adv-x="1101" d="M432 -20Q312 -20 215 19T60 127T2 287Q2 382 57 440T203 499Q285 499 345 446T405 299Q405 242 376 198T301 127T203 101Q167 101 132 121T68 172T22 233T4 287H43Q43 225 72 176T152 92T263 38T385 19Q466 19 518 57T601
157T644 292T657 438Q657 555 626 643T537 781T401 830Q336 830 289 808T210 755T163 695H125Q141 732 184 779T307 860T519 895Q668 895 786 843T973 690T1041 438Q1041 341 994 258T864 112T670 15T432 -20ZM105 695V1500H933V1609H972V1144H144V695H105Z" />
<glyph unicode="6" horiz-adv-x="1265" d="M661 -20Q496 -20 370 52T172 267T100 620Q100 802 169 964T367 1252T670 1448T1056 1520V1483Q920 1483 814 1418T636 1241T526 991T488 707L490 560Q490 437 499 338T529 167T583 57T666 19Q716 19 745 53T790 151T811
303T816 500Q816 664 797 756T743 885T654 923Q598 923 562 888T508 773T490 560H460Q460 692 479 787T555 935T724 987Q811 987 896 959T1052 871T1165 720T1207 500Q1207 350 1140 233T950 48T661 -20Z" />
<glyph unicode="7" horiz-adv-x="1111" d="M497 -20Q406 -20 342 32T277 196Q277 255 307 319T385 452T491 595T604 751Q637 801 670 856T742 980T831 1135H119V984H80V1500H1092Q1092 1500 1065 1449T990 1315T887 1134T773 939T666 765Q615 684 589 639T552
566T541 504Q541 461 567 429T627 366T687 293T713 189Q713 101 655 41T497 -20Z" />
<glyph unicode="8" horiz-adv-x="1245" d="M623 -20Q349 -20 215 90T80 380Q80 543 190 647T525 770Q328 789 224 880T120 1120Q120 1230 177 1321T347 1466T623 1520Q786 1520 898 1466T1068 1321T1126 1120Q1126 972 1022 881T721 770Q946 751 1056 647T1166
380Q1166 200 1032 90T623 -20ZM623 19Q686 19 722 64T775 190T791 380Q791 489 775 571T723 698T623 743Q561 743 524 698T471 571T455 380Q455 271 471 190T524 64T623 19ZM623 797Q669 797 697 827T737 928T750 1120Q750 1205 743 1272T721 1385T682 1456T623
1481Q589 1481 565 1457T525 1386T503 1272T496 1120Q496 999 508 929T549 828T623 797Z" />
<glyph unicode="9" horiz-adv-x="1265" d="M211 -20V17Q347 17 452 82T630 259T740 509T778 793L776 940Q776 1063 767 1162T737 1333T683 1443T600 1481Q551 1481 522 1447T477 1349T456 1197T451 1000Q451 836 469 744T524 615T612 577Q668 577 704 612T758
727T776 940H806Q806 808 787 713T711 565T542 513Q455 513 370 541T214 629T102 780T60 1000Q60 1150 127 1267T317 1452T605 1520Q771 1520 897 1448T1095 1233T1166 880Q1166 698 1097 536T900 248T597 52T211 -20Z" />
<glyph unicode=":" horiz-adv-x="573" d="M288 674Q230 674 183 702T108 777T80 882Q80 939 108 986T183 1062T288 1090Q345 1090 392 1062T468 987T496 882Q496 825 468 778T393 702T288 674ZM288 -20Q230 -20 183 8T108 83T80 188Q80 245 108 292T183 368T288
396Q345 396 392 368T468 293T496 188Q496 131 468 84T393 8T288 -20Z" />
<glyph unicode=";" horiz-adv-x="610" d="M291 674Q233 674 186 702T111 777T83 882Q83 939 111 986T186 1062T291 1090Q348 1090 395 1062T471 987T499 882Q499 825 471 778T396 702T291 674ZM79 -310V-270Q169 -270 248 -242T384 -158T469 -22T485 161H498Q499
117 470 76T392 7T290 -20Q193 -20 138 42T83 186Q83 241 113 288T194 363T305 392Q366 392 418 358T501 262T533 114Q533 -8 477 -104T319 -255T79 -310Z" />
<glyph unicode="&lt;" horiz-adv-x="1119" d="M120 759V802L1000 1213V1170L120 759ZM1000 338L120 748V791L1000 380V338Z" />
<glyph unicode="=" horiz-adv-x="1119" d="M120 902V940H1000V902H120ZM120 601V639H1000V601H120Z" />
<glyph unicode="&gt;" horiz-adv-x="1119" d="M120 1170V1212L1000 802V748L120 337V380L965 775L120 1170Z" />
<glyph unicode="?" horiz-adv-x="1201" d="M494 520V726Q580 757 630 814T703 949T725 1120Q725 1191 718 1253T690 1365T626 1441T509 1469Q441 1469 378 1443T266 1371T189 1267T160 1145H122Q122 1194 148 1232T218 1293T307 1316Q355 1316 397 1293T467 1228T494
1133Q494 1075 466 1034T394 971T307 949Q234 949 177 1003T120 1145Q120 1207 151 1272T243 1394T391 1485T591 1520Q750 1520 864 1470T1040 1330T1102 1120Q1102 1005 1031 916T833 774T534 711V520H494ZM557 -20Q499 -20 452 8T377 83T349 188Q349 245 377
292T452 368T557 396Q614 396 661 368T736 293T764 188Q764 131 736 84T661 8T557 -20Z" />
<glyph unicode="@" horiz-adv-x="2018" d="M838 -428Q701 -428 571 -383T336 -239T171 24T109 422Q109 610 162 782T313 1100T543 1353T835 1520T1170 1580Q1360 1580 1499 1511T1730 1328T1865 1077T1910 802Q1910 677 1875 558T1769 344T1590 193T1338 136Q1238
136 1181 162T1098 231T1070 324T1078 420L1222 1040H1577L1430 409Q1425 384 1419 356T1409 302T1410 254T1428 221T1472 208Q1547 208 1618 253T1746 379T1836 569T1870 802Q1870 934 1829 1064T1703 1303T1485 1476T1169 1541Q1001 1541 849 1484T569 1322T347
1078T202 771T150 422Q150 194 207 39T363 -211T585 -347T838 -389Q997 -389 1124 -359T1355 -265T1544 -103L1570 -128Q1444 -275 1264 -351T838 -428ZM758 140Q668 140 599 176T491 284T451 460Q451 573 488 679T590 872T742 1008T925 1059Q995 1059 1039 1030T1109
951T1145 841T1155 719Q1155 599 1128 494T1049 310T924 185T758 140ZM923 264Q954 264 988 296T1052 386T1099 522T1118 692Q1118 724 1116 765T1105 845T1079 910T1034 936Q1001 936 965 901T898 805T848 662T829 487Q829 420 839 370T870 292T923 264Z" />
<glyph unicode="A" horiz-adv-x="1627" d="M397 464V503H997V464H397ZM920 1529L1437 39H1590V0H851V39H1013L655 1142L267 39H479V0H38V39H222L749 1529H920Z" />
<glyph unicode="B" horiz-adv-x="1470" d="M38 0V39H726Q805 39 864 84T955 215T988 420Q988 539 956 611T864 717T726 750H516V776H805Q968 776 1099 740T1307 620T1384 391Q1384 177 1232 89T805 0H38ZM219 19V1481H585V19H219ZM516 764V790H706Q775 790 830
820T916 920T948 1109Q948 1228 917 1306T830 1422T706 1461H38V1500H766Q1025 1500 1174 1413T1324 1130Q1324 946 1183 855T766 764H516Z" />
<glyph unicode="C" horiz-adv-x="1458" d="M827 -20Q594 -20 429 80T176 354T88 750Q88 972 176 1146T429 1420T827 1520Q915 1520 990 1490T1126 1404L1311 1500H1345V1045H1304Q1251 1173 1186 1268T1036 1416T847 1469Q744 1469 676 1409T568 1247T511 1016T494
750Q494 614 511 485T567 254T675 91T847 31Q945 31 1018 63T1147 153T1245 288T1325 455H1366V0H1330L1158 101Q1095 44 1012 12T827 -20Z" />
<glyph unicode="D" horiz-adv-x="1581" d="M716 1500Q960 1500 1134 1408T1401 1147T1494 750Q1494 579 1439 441T1281 205T1035 53T716 0H38V39H219V1461H38V1500H716ZM585 39H716Q821 39 892 92T1007 241T1069 467T1089 750Q1089 903 1067 1032T1000 1258T884
1408T716 1461H585V39Z" />
<glyph unicode="E" horiz-adv-x="1311" d="M38 0V39H219V1461H38V1500H1225V1090H1186Q1164 1197 1106 1281T959 1413T752 1461H585V39H732Q868 39 966 89T1124 231T1206 450H1245V0H38ZM889 512Q867 579 825 634T729 723T619 757H532V795H619Q675 795 728 825T824
909T889 1030H929V512H889Z" />
<glyph unicode="F" horiz-adv-x="1256" d="M880 477Q858 544 821 601T730 692T604 726H473V766H604Q676 766 730 797T821 883T880 1004H920V477H880ZM1190 1500V1090H1151Q1129 1197 1079 1281T949 1413T760 1461H585V39H784V0H38V39H219V1461H38V1500H1190Z" />
<glyph unicode="G" horiz-adv-x="1566" d="M853 590H1540V549H1449V301Q1388 248 1328 192T1199 88T1039 10T826 -20Q596 -20 431 73T177 339T88 750Q88 928 150 1070T320 1313T566 1466T856 1520Q936 1520 1013 1493T1157 1417L1370 1500H1404V1045H1364Q1341
1120 1298 1194T1194 1331T1055 1431T887 1469Q784 1469 710 1409T587 1246T517 1015T494 750Q494 614 508 483T560 248T662 81T826 18Q875 18 913 39T981 95T1030 171T1064 250V549H853V590Z" />
<glyph unicode="H" horiz-adv-x="1651" d="M1614 1500V1461H1434V39H1614V0H898V39H1069V721H585V39H755V0H38V39H219V1461H38V1500H755V1461H585V759H1069V1461H898V1500H1614Z" />
<glyph unicode="I" horiz-adv-x="901" d="M38 0V39H259V1461H38V1500H864V1461H624V39H864V0H38Z" />
<glyph unicode="J" horiz-adv-x="1178" d="M1138 1500V1461H938V340Q904 260 858 188T750 59T606 -29T420 -61Q306 -61 217 -26T76 73T24 225Q24 288 53 336T130 412T233 439Q284 439 332 415T411 346T442 238Q442 176 411 132T331 65T224 44Q192 46 164 68T127
122Q145 76 184 45T275 -2T378 -18Q459 -18 501 23T558 153T574 380V1461H314V1500H1138Z" />
<glyph unicode="K" horiz-adv-x="1628" d="M320 434L1252 1461H1042V1500H1521V1461H1307L375 434H320ZM38 0V39H219V1461H38V1500H784V1461H585V39H755V0H38ZM846 0V39H1018L616 744L860 1008L1433 39H1612V0H846Z" />
<glyph unicode="L" horiz-adv-x="1288" d="M38 0V39H219V1461H38V1500H764V1461H585V39H729Q835 39 916 67T1056 149T1150 279T1203 450H1242V0H38Z" />
<glyph unicode="M" horiz-adv-x="1868" d="M768 -20L212 1500H579L950 503L1294 1500H1336L813 -20H768ZM232 1500V39H380V0H49V39H191V1461H38V1500H232ZM1831 1500V1461H1690V39H1831V0H1165V39H1325V1500H1831Z" />
<glyph unicode="N" horiz-adv-x="1573" d="M284 1500V39H513V0H38V39H243V1461H38V1500H284ZM1536 1500V1461H1326V-20H1271L256 1500H690L1285 605V1461H1062V1500H1536Z" />
<glyph unicode="O" horiz-adv-x="1572" d="M787 -20Q624 -20 495 37T275 199T136 444T88 750Q88 915 138 1055T281 1300T502 1462T787 1520Q943 1520 1071 1463T1292 1301T1435 1056T1485 750Q1485 585 1438 445T1299 200T1079 38T787 -20ZM787 17Q879 17 936
69T1025 219T1068 451T1080 750Q1080 914 1066 1048T1018 1280T929 1430T787 1483Q703 1483 646 1431T556 1281T509 1049T494 750Q494 586 505 452T548 220T637 70T787 17Z" />
<glyph unicode="P" horiz-adv-x="1417" d="M775 1500Q970 1500 1095 1447T1279 1298T1339 1071Q1339 942 1280 848T1095 702T775 651H585V39H764V0H38V39H219V1461H38V1500H775ZM585 690H716Q777 690 820 724T891 814T930 937T943 1071Q943 1138 931 1206T891
1333T821 1426T716 1461H585V690Z" />
<glyph unicode="Q" horiz-adv-x="1572" d="M1214 -500Q1016 -500 891 -478T698 -400T605 -244T579 14Q682 -8 783 -8T984 14Q984 -122 989 -214T1016 -360T1085 -438T1214 -461V-500ZM787 -20Q624 -20 495 37T275 199T136 444T88 750Q88 915 138 1055T281 1300T502
1462T787 1520Q943 1520 1071 1463T1292 1301T1435 1056T1485 750Q1485 585 1438 445T1299 200T1079 38T787 -20ZM787 17Q879 17 936 69T1025 219T1068 451T1080 750Q1080 914 1066 1048T1018 1280T929 1430T787 1483Q703 1483 646 1431T556 1281T509 1049T494
750Q494 586 505 452T548 220T637 70T787 17Z" />
<glyph unicode="R" horiz-adv-x="1542" d="M399 763V787H684Q780 787 843 820T938 928T970 1127Q970 1250 939 1323T844 1429T684 1461H38V1500H757Q929 1500 1062 1461T1270 1339T1346 1127Q1346 997 1275 917T1072 800T757 763H399ZM38 0V39H786V0H38ZM229 21V1481H595V21H229ZM1247
-17Q1138 -17 1076 15T983 101T944 224T934 364T928 505T902 627T831 714T689 747H399V768H904Q1041 768 1120 729T1238 624T1289 482T1301 327T1302 185T1324 81T1396 41Q1427 41 1454 48T1502 65L1515 27Q1491 13 1419 -2T1247 -17Z" />
<glyph unicode="S" horiz-adv-x="1237" d="M642 -29Q539 -29 460 4T319 95L125 -20H89V478H129Q161 396 204 314T307 163T446 53T630 11Q719 11 784 44T884 135T920 269Q920 347 876 399T761 489T603 561T431 636T273 738T157 887T113 1106Q113 1238 178 1330T347
1471T571 1520Q656 1520 729 1493T863 1414L1051 1520H1084V1050H1045Q995 1178 931 1274T781 1424T584 1478Q476 1478 417 1422T357 1274Q357 1203 400 1155T515 1069T672 995T843 915T1000 809T1116 659T1160 444Q1160 299 1089 193T901 29T642 -29Z" />
<glyph unicode="T" horiz-adv-x="1421" d="M308 0V39H528V1461H443Q367 1461 307 1426T201 1329T126 1184T79 1006H38V1500H1384V1006H1345Q1329 1101 1298 1183T1222 1328T1117 1426T980 1461H894V39H1114V0H308Z" />
<glyph unicode="U" horiz-adv-x="1493" d="M1453 1500V1461H1265V460Q1265 213 1144 92T775 -29Q483 -29 350 86T217 460V1461H36V1500H783V1461H583V480Q583 381 594 299T635 156T722 63T870 29Q972 29 1052 71T1178 207T1225 460V1461H1045V1500H1453Z" />
<glyph unicode="V" horiz-adv-x="1627" d="M1596 1500V1461H1416L887 -29H701L184 1461H31V1500H816V1461H608L973 336L1372 1461H1138V1500H1596Z" />
<glyph unicode="W" horiz-adv-x="2346" d="M765 -20L191 1461H27V1500H1829V1461H1271L1687 373L2100 1461H1915V1500H2319V1461H2143L1585 -20H1469L894 1461H613L1029 373L1198 815L1221 755L925 -20H765ZM1441 909L1404 932L1622 1489L1666 1486L1441 909Z" />
<glyph unicode="X" horiz-adv-x="1654" d="M887 0V39H1060L238 1461H96V1500H832V1461H646L1476 39H1626V0H887ZM26 0V39H237L787 834L830 826L285 39H504V0H26ZM815 772L1278 1461H1078V1500H1516V1461H1322L858 763L815 772Z" />
<glyph unicode="Y" horiz-adv-x="1512" d="M413 0V39H592V720L170 1461H26V1500H782V1461H595L943 811L1275 1461H1067V1500H1484V1461H1322L958 754V39H1158V0H413Z" />
<glyph unicode="Z" horiz-adv-x="1296" d="M27 0V39L788 1461H533Q397 1461 314 1420T184 1301T108 1116H69V1500H1203V1461L442 39H757Q893 39 976 82T1105 211T1182 424H1221V0H27Z" />
<glyph unicode="[" horiz-adv-x="736" d="M109 -300V1560H465V-300H109ZM109 -300V-261H678V-300H109ZM109 1520V1560H678V1520H109Z" />
<glyph unicode="\" horiz-adv-x="1043" d="M920 -300L80 1560H125L965 -300H920Z" />
<glyph unicode="]" horiz-adv-x="736" d="M273 -300V1560H629V-300H273ZM60 -300V-260H629V-300H60ZM60 1521V1560H629V1521H60Z" />
<glyph unicode="^" horiz-adv-x="1088" d="M223 1239L200 1260L480 1540H609L891 1260L868 1239L544 1445L223 1239Z" />
<glyph unicode="_" horiz-adv-x="1118" d="M-11 -319V-281H1129V-319H-11Z" />
<glyph unicode="`" horiz-adv-x="1000" d="M698 1673L422 1745Q359 1757 324 1798T284 1889T305 1978Q327 2011 374 2025T472 2024T558 1948L718 1699L698 1673Z" />
<glyph unicode="a" horiz-adv-x="1213" d="M914 -20Q841 -20 785 -1T698 58T667 159V609Q667 681 652 747T596 855T475 898Q434 898 385 889T292 858T220 803T191 717H144Q144 785 197 828T324 871Q399 871 455 833T511 721Q511 645 455 604T324 563Q245 563 194
605T142 717Q142 778 176 819T266 887T391 924T528 936Q687 936 789 896T942 782T992 609V134Q992 100 1006 77T1058 54Q1082 54 1117 72T1175 134L1201 114Q1171 48 1094 14T914 -20ZM357 -20Q227 -20 150 46T72 227Q72 361 188 437T518 514H760V480H612Q542 480
500 447T439 364T420 267Q420 220 431 185T464 130T520 109Q556 109 589 135T645 218T667 362H693Q693 245 651 159T534 27T357 -20Z" />
<glyph unicode="b" horiz-adv-x="1303" d="M815 -20Q695 -20 615 56T502 270V0H37V39H175V1461H37V1500H502V650Q534 787 614 862T815 938Q923 938 1019 881T1176 717T1237 460Q1237 310 1177 203T1020 38T815 -20ZM732 48Q777 48 807 90T852 223T867 460Q867
606 852 696T807 827T732 869Q679 869 626 823T538 686T502 460Q502 324 537 233T626 95T732 48Z" />
<glyph unicode="c" horiz-adv-x="1071" d="M569 -20Q431 -20 318 30T137 186T69 460Q69 608 128 715T298 881T569 939Q693 939 787 903T935 804T988 667Q988 586 934 539T807 491Q764 491 721 510T649 568T620 665Q620 745 677 790T807 835Q877 835 931 791T986
667H948Q948 717 920 758T845 830T747 877T648 894Q583 894 545 853T487 748T461 607T455 460Q455 374 464 299T497 166T560 77T664 44Q739 44 794 74T886 158T947 280H988Q949 144 849 62T569 -20Z" />
<glyph unicode="d" horiz-adv-x="1303" d="M489 -19Q381 -19 285 38T128 202T68 459Q68 609 128 716T284 881T489 939Q609 939 689 863T803 648V1461H665V1500H1129V39H1267V0H803V270Q770 132 690 57T489 -19ZM573 50Q626 50 678 96T767 233T803 459Q803 595
767 686T679 824T573 871Q528 871 498 829T453 696T438 459Q438 313 452 223T497 92T573 50Z" />
<glyph unicode="e" horiz-adv-x="1075" d="M567 -20Q422 -20 310 34T133 196T68 460Q68 617 130 724T304 885T560 940Q708 940 806 879T955 721T1005 515H201V555H669Q668 619 665 680T652 792T620 871T560 901Q519 901 493 870T451 781T430 650T424 489Q424 387
432 303T463 157T527 63T632 30Q756 30 844 100T970 279H1011Q972 152 864 66T567 -20Z" />
<glyph unicode="f" horiz-adv-x="836" d="M207 0V1023Q207 1169 274 1281T459 1456T733 1520Q825 1520 889 1482T988 1388T1023 1278Q1023 1189 967 1143T842 1096Q802 1096 761 1113T693 1167T665 1263Q665 1343 717 1388T834 1433Q880 1433 922 1415T993 1361T1021
1278H983Q983 1334 952 1379T868 1452T755 1480Q671 1480 619 1433T543 1296T519 1080V0H207ZM30 0V39H756V0H30ZM30 881V920H796V881H30Z" />
<glyph unicode="g" horiz-adv-x="1321" d="M531 -520Q437 -520 350 -506T192 -463T81 -385T39 -268Q39 -208 74 -171T160 -113T262 -85T348 -77H377Q343 -97 322 -136T300 -236Q300 -303 332 -357T430 -444T594 -476Q655 -476 714 -464T823 -425T901 -358T931
-258Q931 -196 898 -160T811 -107T691 -91Q670 -91 624 -91T531 -91T462 -91Q300 -91 202 -39T103 122Q103 188 141 231T242 300T379 336T524 347L522 330Q495 330 460 324T390 307T334 279T312 241Q312 206 358 195T486 183Q521 183 558 183T632 184T696 185Q752
185 813 169T929 113T1017 6T1051 -164Q1051 -263 1010 -331T897 -440T731 -501T531 -520ZM520 322Q445 322 369 339T230 393T127 489T88 631Q88 714 127 772T229 867T369 921T520 939Q594 939 669 922T808 868T909 773T948 631Q948 548 910 489T808 394T670 340T520
322ZM520 361Q553 361 574 396T606 492T616 631Q616 716 606 776T575 868T520 900Q486 900 465 868T434 776T423 631Q423 553 429 492T456 396T520 361ZM1151 596Q1097 596 1056 632T1014 733Q1014 800 1056 831T1151 863Q1199 863 1245 832T1292 742H1253Q1253
802 1205 847T1079 892Q1039 892 994 874T909 812T849 687L822 707Q842 792 884 841T977 910T1076 930Q1147 930 1195 902T1269 831T1294 742Q1294 662 1250 629T1151 596Z" />
<glyph unicode="h" horiz-adv-x="1285" d="M37 0V39H175V1461H37V1500H502V39H595V0H37ZM692 0V39H785V616Q785 700 779 747T754 812T700 831Q655 831 619 798T556 710T516 586T502 446L469 445Q469 519 485 604T540 766T648 891T823 940Q935 940 997 901T1085
794T1111 639V39H1248V0H692Z" />
<glyph unicode="i" horiz-adv-x="675" d="M349 1132Q266 1132 211 1187T155 1325Q155 1408 210 1463T349 1519Q431 1519 486 1464T542 1325Q542 1243 487 1188T349 1132ZM512 920V39H649V0H48V39H185V881H48V920H512Z" />
<glyph unicode="j" horiz-adv-x="698" d="M50 -520Q-42 -520 -116 -488T-233 -400T-277 -273Q-277 -195 -223 -143T-89 -90Q-42 -90 0 -112T68 -174T95 -264Q95 -335 46 -383T-87 -432Q-138 -432 -180 -408T-249 -347T-275 -273H-237Q-237 -333 -197 -380T-95
-455T32 -482Q105 -482 144 -437T199 -316T218 -147T221 41V881H43V920H546V-23Q546 -121 506 -210T396 -369T237 -479T50 -520ZM367 1133Q285 1133 230 1189T174 1327Q174 1410 229 1465T367 1520Q450 1520 505 1465T560 1327Q560 1245 505 1189T367 1133Z" />
<glyph unicode="k" horiz-adv-x="1335" d="M37 0V39H215V1461H37V1500H542V39H638V0H37ZM714 0V39H815L469 538L973 881H765V920H1206V881H1031L741 677L1214 39H1318V0H714Z" />
<glyph unicode="l" horiz-adv-x="756" d="M542 1500V39H719V0H37V39H215V1461H37V1500H542Z" />
<glyph unicode="m" horiz-adv-x="1815" d="M501 920V39H586V0H37V39H175V881H37V920H501ZM1071 639V39H1156V0H659V39H745V618Q745 702 740 750T718 818T674 838Q636 838 605 806T550 717T514 591T501 448L475 447Q475 521 488 606T536 767T638 891T808 940Q906
940 963 901T1046 794T1071 639ZM1640 639V39H1778V0H1229V39H1316V618Q1316 702 1310 750T1287 818T1242 838Q1203 838 1172 806T1118 717T1083 591T1071 448L1046 447Q1046 521 1057 606T1103 767T1202 891T1375 940Q1472 940 1530 901T1614 794T1640 639Z" />
<glyph unicode="n" horiz-adv-x="1285" d="M501 920V39H594V0H37V39H175V881H37V920H501ZM1111 639V39H1248V0H692V39H785V616Q785 700 779 747T754 812T700 831Q655 831 618 798T555 710T515 586T501 446L468 445Q468 519 484 604T539 766T648 891T824 940Q936
940 998 901T1085 794T1111 639Z" />
<glyph unicode="o" horiz-adv-x="1139" d="M570 -20Q414 -20 302 46T129 221T68 460Q68 590 128 699T301 874T570 940Q726 940 838 874T1011 699T1072 460Q1072 330 1011 221T838 46T570 -20ZM570 19Q613 19 644 51T694 141T722 281T732 460Q732 558 723 639T694
778T644 869T570 901Q527 901 497 869T447 779T418 639T409 460Q409 362 418 281T446 142T496 51T570 19Z" />
<glyph unicode="p" horiz-adv-x="1303" d="M37 -500V-461H175V881H37V920H502V650Q534 787 614 862T815 938Q923 938 1019 881T1176 717T1237 460Q1237 310 1177 203T1020 38T815 -20Q695 -20 615 56T502 270V-461H638V-500H37ZM732 48Q777 48 807 90T852 223T867
460Q867 606 852 696T807 827T732 869Q679 869 626 823T538 686T502 460Q502 324 537 233T626 95T732 48Z" />
<glyph unicode="q" horiz-adv-x="1303" d="M665 -500V-461H803V270Q770 132 690 57T489 -19Q381 -19 285 38T128 202T68 459Q68 609 128 716T284 881T489 939Q609 939 689 863T803 648V920H1267V881H1129V-461H1267V-500H665ZM573 50Q626 50 678 96T767 233T803
459Q803 595 767 686T679 824T573 871Q528 871 498 829T453 696T438 459Q438 313 452 223T497 92T573 50Z" />
<glyph unicode="r" horiz-adv-x="1038" d="M478 425Q478 531 494 624T547 788T641 899T781 939Q856 939 908 905T986 818T1013 708Q1013 630 960 572T824 513Q741 513 688 566T634 691Q634 771 685 825T822 880Q877 880 919 855T986 791T1011 708H972Q972 757
949 801T881 872T776 899Q713 899 662 864T575 765T520 614T501 425H478ZM501 920V39H662V0H37V39H175V881H37V920H501Z" />
<glyph unicode="s" horiz-adv-x="915" d="M76 -20V307H116Q154 215 207 151T327 54T477 21Q536 21 581 36T651 78T677 143Q677 190 635 218T527 268T388 314T248 378T140 480T98 643Q98 729 139 795T252 900T420 938Q488 938 543 916T642 858L757 940H791V660H752Q717
723 672 777T566 863T421 896Q377 896 342 882T285 843T263 786Q263 741 306 713T417 662T560 615T703 552T814 453T857 297Q857 186 802 116T662 13T489 -20Q409 -20 344 5T226 77L110 -20H76Z" />
<glyph unicode="t" horiz-adv-x="768" d="M419 -14Q315 -14 260 16T183 103T161 237V1120Q239 1120 331 1133T487 1180V213Q487 138 504 105T564 71Q606 71 651 106T725 210L761 194Q724 102 640 44T419 -14ZM18 881V920H701V881H18Z" />
<glyph unicode="u" horiz-adv-x="1286" d="M462 -20Q351 -20 289 19T201 127T175 282V881H37V920H502V304Q502 220 508 173T533 108T587 89Q633 89 669 122T732 210T771 334T785 474L817 475Q817 401 802 316T748 154T640 29T462 -20ZM785 0V881H660V920H1112V39H1249V0H785Z"
/>
<glyph unicode="v" horiz-adv-x="1166" d="M1163 920V881H1014L652 -20H508L138 881H2V920H629V881H497L717 255L968 881H788V920H1163Z" />
<glyph unicode="w" horiz-adv-x="1714" d="M1710 920V881H1542L1242 -20H1097L847 673L572 -20H426L136 881H2V920H647V881H479L645 276L908 940H1129L1313 322L1500 881H1299V920H1710Z" />
<glyph unicode="x" horiz-adv-x="1177" d="M542 0V39H667L158 881H27V920H646V881H523L1046 39H1158V0H542ZM22 0V39H161L925 881H785V920H1135V881H975L212 39H397V0H22Z" />
<glyph unicode="y" horiz-adv-x="1252" d="M528 881L820 315L630 -50L131 881H-12V920H726V881H528ZM1271 920V881H1117L512 -355Q477 -426 427 -473T299 -521Q256 -521 214 -502T144 -444T116 -349Q116 -298 141 -257T208 -192T300 -168Q345 -168 384 -191T447
-255T470 -347L1070 881H876V920H1271Z" />
<glyph unicode="z" horiz-adv-x="989" d="M28 0V39L557 881H441Q356 881 293 847T187 745T123 576H84V920H919V881L388 39H550Q630 39 690 55T794 110T867 211T912 368H951V0H28Z" />
<glyph unicode="{" horiz-adv-x="718" d="M660 1560V1520Q598 1520 556 1490T493 1409T472 1294Q472 1233 489 1177T522 1056T539 906Q539 827 503 773T382 685T149 630Q296 610 381 576T503 489T539 356Q539 271 523 207T489 86T472 -32Q472 -95 493 -147T556
-230T660 -261V-300Q448 -300 328 -266T159 -163T109 9Q109 101 127 167T169 284T211 379T230 471Q230 533 192 564T109 611V650Q154 665 192 698T230 792Q230 839 212 883T170 977T128 1094T109 1253Q109 1356 158 1424T328 1526T660 1560Z" />
<glyph unicode="|" horiz-adv-x="476" d="M219 -500V1560H259V-500H219Z" />
<glyph unicode="}" horiz-adv-x="718" d="M611 624Q449 644 355 677T221 766T180 904Q180 989 197 1053T231 1174T248 1292Q248 1355 227 1407T164 1490T60 1521V1560Q272 1560 391 1526T561 1423T611 1251Q611 1159 593 1093T550 976T508 881T490 789Q490 727
527 696T611 649V624ZM60 -300V-260Q122 -260 164 -230T227 -149T248 -34Q248 27 231 83T197 204T180 354Q180 437 220 492T355 581T611 635V610Q565 595 528 563T490 468Q490 421 508 377T550 283T592 166T611 7Q611 -96 561 -164T392 -266T60 -300Z" />
<glyph unicode="~" horiz-adv-x="1374" d="M878 642Q802 642 753 661T668 708T599 764T524 811T418 830Q367 830 327 815T263 768T239 686H200Q200 801 235 886T337 1017T498 1064Q564 1064 610 1045T691 998T761 942T837 895T939 876Q1000 876 1044 891T1113
938T1137 1020H1176Q1176 905 1141 820T1039 689T878 642Z" />
<glyph unicode="&#xa0;" horiz-adv-x="500" />
<glyph unicode="&#xa1;" horiz-adv-x="813" d="M410 -476Q307 -476 255 -412T202 -257Q202 -248 203 -239T204 -219Q212 -120 241 -31T305 143T364 310T390 478H430Q430 393 455 311T515 144T579 -30T616 -219Q617 -229 617 -238T616 -257Q616 -348 565 -412T410
-476ZM408 644Q351 644 304 672T229 747T200 852Q200 909 228 956T304 1032T408 1060Q465 1060 512 1032T588 957T616 852Q616 795 588 748T513 672T408 644Z" />
<glyph unicode="&#xa2;" horiz-adv-x="1071" d="M569 -20Q431 -20 318 30T137 186T69 460Q69 608 128 715T298 881T569 939Q693 939 787 903T935 804T988 667Q988 586 934 539T807 491Q764 491 721 510T649 568T620 665Q620 745 677 790T807 835Q877 835 931 791T986
667H948Q948 717 920 758T845 830T747 877T648 894Q583 894 545 853T487 748T461 607T455 460Q455 374 464 299T497 166T560 77T664 44Q739 44 794 74T886 158T947 280H988Q949 144 849 62T569 -20ZM564 -170V1109H603V-170H564Z" />
<glyph unicode="&#xa3;" horiz-adv-x="1339" d="M145 -40Q134 43 150 112T196 240T260 348T316 440T339 521Q339 607 315 676T258 810T202 944T177 1100Q177 1240 250 1333T456 1473T768 1520Q890 1520 985 1486T1147 1395T1249 1274T1284 1147Q1284 1088 1256
1041T1180 965T1076 936Q1025 936 980 962T905 1033T875 1136Q875 1189 902 1234T975 1306T1076 1334Q1130 1334 1177 1308T1253 1238T1282 1147H1246Q1246 1205 1214 1262T1123 1368T987 1444T818 1473Q753 1473 707 1451T631 1389T589 1300T575 1193Q575 1119
592 1064T631 962T670 868T687 765Q687 675 648 609T549 488T421 381T296 270T207 136T184 -40H145ZM936 -61Q834 -61 751 -43T600 0T477 42T374 61Q333 61 294 49T225 14T185 -40H163Q178 29 217 101T315 233T443 331T589 369Q664 369 711 359T794 336T868 312T964
302Q1011 302 1061 308T1155 334T1226 391T1253 490H1292Q1292 290 1250 169T1127 -6T936 -61ZM29 771V811H930V771H29Z" />
<glyph unicode="&#xa4;" horiz-adv-x="1140" d="M99 270L71 298L228 456Q112 584 112 770Q112 956 228 1084L70 1241L99 1270L256 1112Q315 1167 394 1198T571 1229Q668 1229 747 1198T885 1113L1042 1269L1070 1241L913 1084Q1028 957 1028 770Q1028 585 914
455L1070 299L1041 270L885 427Q827 373 748 342T571 310Q474 310 394 341T256 427L99 270ZM571 354Q699 354 790 412T931 564T980 770Q980 881 931 975T791 1127T571 1185Q443 1185 351 1128T210 976T160 770Q160 659 209 565T351 412T571 354Z" />
<glyph unicode="&#xa5;" horiz-adv-x="1512" d="M592 0V720L149 1500H574L943 811L1296 1498L1342 1496L958 754V0H592ZM413 0V39H1158V0H413ZM250 321V359H1299V321H250ZM250 622V660H1299V622H250ZM26 1461V1500H782V1461H26ZM1067 1461V1500H1484V1461H1067Z" />
<glyph unicode="&#xa6;" horiz-adv-x="438" d="M209 -500V332H249V-500H209ZM209 818V1560H249V818H209Z" />
<glyph unicode="&#xa7;" horiz-adv-x="979" d="M316 1307Q316 1249 357 1209T465 1136T605 1072T746 1001T853 908T895 777Q895 708 865 662T787 584T685 523L652 525Q697 559 717 584T738 651Q738 707 695 744T583 809T438 867T293 936T181 1036T138 1187Q138
1291 191 1365T331 1480T519 1520Q585 1520 651 1506T773 1461T862 1379T896 1254Q896 1176 849 1128T732 1080Q670 1080 625 1118T580 1228Q580 1292 628 1333T738 1375Q764 1375 789 1361T821 1326Q805 1382 758 1416T648 1465T519 1481Q458 1481 412 1457T341
1393T316 1307ZM274 871Q274 815 319 778T435 712T585 653T736 581T852 478T898 324Q898 220 846 143T697 23T467 -20Q401 -20 330 -6T198 40T98 124T60 253Q60 331 107 378T223 426Q285 426 330 387T375 277Q375 213 326 172T210 130Q184 132 161 146T131 183Q146
137 181 106T265 56T365 28T467 19Q549 19 603 46T686 115T714 204Q714 260 670 297T557 362T409 417T262 480T148 567T104 695Q104 768 135 823T213 919T305 985H339Q322 972 308 957T284 921T274 871Z" />
<glyph unicode="&#xa8;" horiz-adv-x="1000" d="M700 1683Q649 1683 613 1719T576 1807Q576 1858 612 1894T700 1931Q751 1931 787 1895T824 1807Q824 1756 788 1720T700 1683ZM300 1683Q249 1683 213 1719T177 1807Q177 1858 213 1894T301 1931Q352 1931 388
1895T425 1807Q425 1756 389 1720T300 1683Z" />
<glyph unicode="&#xa9;" horiz-adv-x="1738" d="M895 318Q973 318 1026 352T1115 444T1182 573H1206V300H1185L1082 361Q1043 327 994 308T883 288Q744 288 645 348T493 512T440 750Q440 883 492 987T644 1152T883 1212Q936 1212 981 1194T1062 1143L1174 1200H1194V927H1170Q1138
1004 1098 1061T1008 1150T895 1182Q833 1182 792 1146T727 1048T694 909T684 750Q684 668 693 591T727 452T792 354T895 318ZM870 1520Q1030 1520 1169 1461T1415 1295T1580 1050T1640 750Q1640 590 1581 451T1415 205T1170 40T870 -20Q710 -20 571 39T325 205T160
450T100 750Q100 910 159 1049T325 1295T570 1460T870 1520ZM870 19Q1021 19 1153 76T1386 233T1543 466T1600 750Q1600 901 1544 1033T1387 1266T1154 1424T870 1481Q719 1481 587 1424T354 1267T197 1034T140 750Q140 599 196 467T353 234T586 76T870 19Z" />
<glyph unicode="&#xaa;" horiz-adv-x="754" d="M540 952Q475 952 434 978T392 1059V1329Q392 1373 384 1412T350 1477T277 1503Q245 1503 205 1493T136 1459T107 1394H78Q78 1435 110 1461T186 1487Q231 1487 264 1464T298 1397Q298 1351 264 1327T186 1302Q139
1302 108 1327T77 1394Q77 1442 112 1471T200 1513T309 1526Q404 1526 465 1502T557 1434T587 1329V1044Q587 1024 595 1011T627 997Q641 997 662 1008T698 1045L712 1032Q695 993 649 973T540 952ZM206 952Q128 952 82 992T35 1100Q35 1180 105 1226T303 1272H448V1252H359Q317
1252 292 1232T256 1182T244 1124Q244 1082 259 1056T304 1029Q336 1029 364 1065T392 1182H408Q408 1075 353 1014T206 952Z" />
<glyph unicode="&#xab;" horiz-adv-x="1476" d="M1359 290L609 757V793L1359 1260L1378 1241L1037 776L1378 309L1359 290ZM798 290L50 757V793L798 1260L818 1241L448 776L818 309L798 290Z" />
<glyph unicode="&#xac;" horiz-adv-x="971" d="M813 406V753H120V792H852V406H813Z" />
<glyph unicode="&#xad;" horiz-adv-x="718" d="M120 531V569H600V531H120Z" />
<glyph unicode="&#xae;" horiz-adv-x="1738" d="M870 -20Q710 -20 571 39T325 205T160 450T100 750Q100 910 159 1049T325 1295T570 1460T870 1520Q1030 1520 1169 1461T1415 1295T1580 1050T1640 750Q1640 590 1581 451T1415 205T1170 40T870 -20ZM870 19Q1021
19 1153 76T1386 233T1543 466T1600 750Q1600 901 1544 1033T1387 1266T1154 1424T870 1481Q719 1481 587 1424T354 1267T197 1034T140 750Q140 599 196 467T353 234T586 76T870 19ZM1175 286Q1088 286 1049 319T998 404T987 514T982 625T945 711T840 744H784V319H899V296H450V319H565V1173H450V1196H881Q1037
1196 1136 1143T1235 972Q1235 868 1161 817T955 756Q1057 754 1110 722T1183 641T1206 536T1207 432T1215 352T1264 321Q1283 321 1299 325T1328 334L1336 312Q1322 304 1279 295T1175 286ZM784 768H838Q924 768 966 814T1009 972Q1009 1083 967 1128T838 1173H784V768Z"
/>
<glyph unicode="&#xaf;" horiz-adv-x="1000" d="M260 1700V1739H740V1700H260Z" />
<glyph unicode="&#xb0;" horiz-adv-x="638" d="M320 1120Q254 1120 200 1152T113 1239T80 1360Q80 1425 112 1480T199 1567T320 1600Q386 1600 440 1568T527 1480T560 1360Q560 1293 528 1239T441 1153T320 1120ZM320 1196Q390 1196 437 1242T484 1360Q484 1430
437 1477T320 1524Q250 1524 203 1477T155 1359Q155 1290 202 1243T320 1196Z" />
<glyph unicode="&#xb1;" horiz-adv-x="1059" d="M311 561V982H748V561H311ZM121 2V40H940V2H121ZM319 553V990H740V553H319Z" />
<glyph unicode="&#xb2;" horiz-adv-x="938" d="M158 917V1056L410 1238Q487 1294 526 1365T565 1542Q565 1647 520 1715T397 1783Q345 1783 298 1758T221 1684T192 1565H170Q170 1604 212 1636T305 1668Q351 1668 389 1634T428 1548Q428 1492 390 1458T300 1423Q249
1423 210 1462T169 1565Q167 1681 253 1755T483 1829Q627 1829 708 1764T790 1602Q790 1548 770 1507T717 1432T645 1372T567 1318L312 1130H791V1220H814V917H158Z" />
<glyph unicode="&#xb3;" horiz-adv-x="898" d="M419 902Q323 902 258 934T161 1016T128 1119Q128 1172 162 1206T244 1240Q288 1240 320 1209T352 1129Q352 1084 318 1053T240 1022Q198 1022 164 1051T129 1119H152Q152 1069 183 1026T265 957T377 930Q461 930
498 993T536 1163Q536 1208 521 1260T465 1351T344 1389V1403Q488 1403 581 1369T718 1277T763 1154Q763 1076 713 1020T583 933T419 902ZM344 1397V1412Q417 1412 450 1446T491 1528T500 1616Q500 1662 490 1703T456 1771T391 1797Q363 1797 328 1787T261 1755T209
1705T188 1639H165Q165 1683 201 1711T277 1739Q320 1739 354 1709T389 1631Q389 1579 353 1550T277 1521Q233 1521 198 1553T163 1639Q163 1692 204 1733T308 1800T431 1825Q498 1825 566 1802T681 1734T727 1623Q727 1563 689 1512T567 1429T344 1397Z" />
<glyph unicode="&#xb4;" horiz-adv-x="1000" d="M302 1673L283 1699L443 1948Q477 2007 528 2023T626 2026T696 1978Q723 1939 718 1889T677 1798T579 1745L302 1673Z" />
<glyph unicode="&#xb5;" horiz-adv-x="1286" d="M1112 920V39H1249V0H785V284Q767 208 730 138T629 24T462 -20Q354 -20 296 21T214 130V-242Q214 -312 244 -361T325 -439T436 -477Q407 -459 388 -419T369 -335Q369 -269 417 -221T536 -173Q608 -173 655 -221T703
-343Q703 -418 650 -469T492 -520Q411 -520 339 -488T221 -394T175 -242V881H37V920H502V304Q502 220 508 173T533 108T587 89Q633 89 669 122T732 210T771 334T785 474V881H660V920H1112Z" />
<glyph unicode="&#xb6;" horiz-adv-x="1351" d="M742 486Q566 486 426 542T206 710T126 993Q126 1163 206 1275T426 1444T742 1500H1265V1461H902V486H742ZM685 -300V-261H1265V-300H685ZM880 -300V1500H919V-300H880ZM1037 -300V1500H1076V-300H1037Z" />
<glyph unicode="&#xb7;" horiz-adv-x="573" d="M288 680Q230 680 183 708T108 783T80 888Q80 945 108 992T183 1068T288 1096Q345 1096 392 1068T468 993T496 888Q496 831 468 784T393 708T288 680Z" />
<glyph unicode="&#xb8;" horiz-adv-x="1000" d="M292 -505V-466Q381 -466 420 -435T459 -348Q459 -297 434 -271T369 -237T286 -228L461 6H510L395 -148Q497 -151 569 -168T679 -219T718 -310Q718 -360 680 -405T549 -477T292 -505Z" />
<glyph unicode="&#xb9;" horiz-adv-x="1058" d="M411 919V1789H275V1812H630V919H411ZM255 912V935H762V912H255Z" />
<glyph unicode="&#xba;" horiz-adv-x="1139" d="M570 950Q477 950 410 989T306 1094T269 1238Q269 1316 305 1381T409 1486T570 1526Q663 1526 731 1487T835 1382T872 1238Q872 1160 836 1095T731 990T570 950ZM570 973Q605 973 626 1007T657 1100T667 1238Q667
1316 658 1375T627 1469T570 1503Q535 1503 514 1469T483 1376T473 1238Q473 1160 483 1101T514 1007T570 973Z" />
<glyph unicode="&#xbb;" horiz-adv-x="1491" d="M693 290L673 309L1043 774L673 1241L693 1260L1441 793V757L693 290ZM133 290L113 309L454 774L113 1241L133 1260L882 793V757L133 290Z" />
<glyph unicode="&#xbc;" horiz-adv-x="1368" d="M90 -200L1053 1300H1092L130 -200H90ZM44 712V735H551V712H44ZM856 -206V-183H970V563L624 64H1321V40H581L1032 694H1189V-183H1279V-206H856ZM200 719V1589H64V1612H419V719H200Z" />
<glyph unicode="&#xbd;" horiz-adv-x="1426" d="M79 -200L1042 1300H1081L120 -200H79ZM44 712V735H551V712H44ZM730 -202V-63L983 120Q1059 175 1098 246T1137 423Q1137 528 1092 596T969 664Q918 664 870 639T793 565T765 446H743Q743 485 785 517T877 549Q923
549 961 515T1000 429Q1000 373 962 339T873 304Q822 304 782 343T742 446Q739 562 825 636T1056 710Q1199 710 1281 645T1363 483Q1363 429 1343 388T1290 313T1217 253T1139 199L884 11H1364V101H1387V-202H730ZM200 719V1589H64V1612H419V719H200Z" />
<glyph unicode="&#xbe;" horiz-adv-x="1488" d="M199 -200L1162 1300H1201L240 -200H199ZM331 696Q235 696 170 728T73 810T40 913Q40 966 74 1000T156 1034Q200 1034 232 1003T264 923Q264 878 230 847T152 816Q110 816 76 845T41 913H64Q64 863 95 820T178 751T289
724Q374 724 411 787T448 957Q448 1002 433 1054T377 1145T256 1183V1197Q400 1197 493 1163T630 1071T675 948Q675 870 625 814T495 727T331 696ZM976 -206V-183H1090V563L744 64H1441V40H701L1152 694H1309V-183H1399V-206H976ZM256 1191V1206Q329 1206 362 1240T403
1322T412 1410Q412 1456 402 1497T368 1565T303 1591Q276 1591 241 1581T173 1549T121 1499T100 1433H77Q77 1477 113 1505T189 1533Q232 1533 266 1503T301 1425Q301 1373 265 1344T189 1315Q145 1315 110 1347T75 1433Q75 1486 116 1527T220 1594T343 1619Q410
1619 478 1596T593 1528T639 1417Q639 1357 601 1306T479 1223T256 1191Z" />
<glyph unicode="&#xbf;" horiz-adv-x="1201" d="M609 -480Q450 -480 336 -430T159 -290T97 -80Q97 35 168 124T367 266T665 329V520H705V314Q619 283 569 226T497 91T475 -80Q475 -150 482 -213T510 -325T574 -401T691 -429Q759 -429 821 -403T933 -331T1011 -227T1040
-105H1078Q1078 -154 1052 -192T983 -253T893 -276Q845 -276 802 -253T732 -188T705 -93Q705 -35 734 6T806 69T893 91Q966 91 1023 38T1080 -105Q1080 -166 1049 -232T957 -354T809 -445T609 -480ZM643 644Q586 644 539 672T464 747T435 852Q435 909 463 956T539
1032T643 1060Q700 1060 747 1032T823 957T851 852Q851 795 823 748T748 672T643 644Z" />
<glyph unicode="&#xc0;" horiz-adv-x="1627" d="M397 464V503H997V464H397ZM920 1529L1437 39H1590V0H851V39H1013L655 1142L267 39H479V0H38V39H222L749 1529H920ZM924 1673L648 1745Q585 1757 550 1798T510 1889T531 1978Q553 2011 600 2025T698 2024T784 1948L944
1699L924 1673Z" />
<glyph unicode="&#xc1;" horiz-adv-x="1627" d="M397 464V503H997V464H397ZM920 1529L1437 39H1590V0H851V39H1013L655 1142L267 39H479V0H38V39H222L749 1529H920ZM729 1673L710 1699L870 1948Q904 2007 955 2023T1053 2026T1123 1978Q1150 1939 1145 1889T1104
1798T1006 1745L729 1673Z" />
<glyph unicode="&#xc2;" horiz-adv-x="1627" d="M397 464V503H997V464H397ZM920 1529L1437 39H1590V0H851V39H1013L655 1142L267 39H479V0H38V39H222L749 1529H920ZM505 1697L485 1716L735 2009H923L1173 1716L1153 1697L828 1846L505 1697Z" />
<glyph unicode="&#xc3;" horiz-adv-x="1627" d="M397 464V503H997V464H397ZM920 1529L1437 39H1590V0H851V39H1013L655 1142L267 39H479V0H38V39H222L749 1529H920ZM992 1651Q929 1651 883 1674T797 1729T717 1784T623 1808Q573 1808 545 1777T517 1700H477Q477
1785 497 1856T562 1970T678 2013Q744 2013 789 1989T870 1934T942 1879T1027 1855Q1079 1855 1106 1886T1134 1963H1173Q1173 1869 1162 1799T1112 1690T992 1651Z" />
<glyph unicode="&#xc4;" horiz-adv-x="1627" d="M397 464V503H997V464H397ZM920 1529L1437 39H1590V0H851V39H1013L655 1142L267 39H479V0H38V39H222L749 1529H920ZM1028 1683Q977 1683 941 1719T904 1807Q904 1858 940 1894T1028 1931Q1079 1931 1115 1895T1152
1807Q1152 1756 1116 1720T1028 1683ZM628 1683Q577 1683 541 1719T505 1807Q505 1858 541 1894T629 1931Q680 1931 716 1895T753 1807Q753 1756 717 1720T628 1683Z" />
<glyph unicode="&#xc5;" horiz-adv-x="1627" d="M397 464V503H997V464H397ZM920 1529L1437 39H1590V0H851V39H1013L655 1142L267 39H479V0H38V39H222L749 1529H920ZM828 1680Q729 1680 674 1732T619 1860Q619 1937 674 1988T828 2040Q927 2040 982 1989T1037 1860Q1037
1784 982 1732T828 1680ZM828 1720Q850 1720 864 1735T886 1781T893 1860Q893 1908 886 1939T865 1985T828 2001Q806 2001 792 1986T770 1939T763 1860Q763 1812 770 1782T791 1736T828 1720Z" />
<glyph unicode="&#xc6;" horiz-adv-x="2148" d="M178 0L1038 1500H1079L226 0H178ZM29 0V39H471V0H29ZM478 470L491 509H1070V470H478ZM870 0V39H1590Q1719 39 1814 89T1968 231T2050 450H2088V0H870ZM1050 0V1500H1416V0H1050ZM1734 512Q1712 579 1670 634T1573
723T1462 757H1342V795H1462Q1518 795 1572 826T1669 910T1734 1030H1773V512H1734ZM2030 1090Q2008 1197 1950 1281T1806 1413T1609 1461H1050V1500H2068V1090H2030Z" />
<glyph unicode="&#xc7;" horiz-adv-x="1458" d="M827 -20Q594 -20 429 80T176 354T88 750Q88 972 176 1146T429 1420T827 1520Q915 1520 990 1490T1126 1404L1311 1500H1345V1045H1304Q1251 1173 1186 1268T1036 1416T847 1469Q744 1469 676 1409T568 1247T511
1016T494 750Q494 614 511 485T567 254T675 91T847 31Q945 31 1018 63T1147 153T1245 288T1325 455H1366V0H1330L1158 101Q1095 44 1012 12T827 -20ZM657 -511V-472Q746 -472 785 -441T824 -354Q824 -303 799 -277T734 -243T651 -234L826 0H875L760 -154Q862 -157
934 -174T1044 -225T1083 -316Q1083 -366 1045 -411T914 -483T657 -511Z" />
<glyph unicode="&#xc8;" horiz-adv-x="1311" d="M38 0V39H219V1461H38V1500H1225V1090H1186Q1164 1197 1106 1281T959 1413T752 1461H585V39H732Q868 39 966 89T1124 231T1206 450H1245V0H38ZM889 512Q867 579 825 634T729 723T619 757H532V795H619Q675 795 728
825T824 909T889 1030H929V512H889ZM786 1673L510 1745Q447 1757 412 1798T372 1889T393 1978Q415 2011 462 2025T560 2024T646 1948L806 1699L786 1673Z" />
<glyph unicode="&#xc9;" horiz-adv-x="1311" d="M38 0V39H219V1461H38V1500H1225V1090H1186Q1164 1197 1106 1281T959 1413T752 1461H585V39H732Q868 39 966 89T1124 231T1206 450H1245V0H38ZM889 512Q867 579 825 634T729 723T619 757H532V795H619Q675 795 728
825T824 909T889 1030H929V512H889ZM590 1673L571 1699L731 1948Q765 2007 816 2023T914 2026T984 1978Q1011 1939 1006 1889T965 1798T867 1745L590 1673Z" />
<glyph unicode="&#xca;" horiz-adv-x="1311" d="M38 0V39H219V1461H38V1500H1225V1090H1186Q1164 1197 1106 1281T959 1413T752 1461H585V39H732Q868 39 966 89T1124 231T1206 450H1245V0H38ZM889 512Q867 579 825 634T729 723T619 757H532V795H619Q675 795 728
825T824 909T889 1030H929V512H889ZM367 1697L347 1716L597 2009H785L1035 1716L1015 1697L690 1846L367 1697Z" />
<glyph unicode="&#xcb;" horiz-adv-x="1311" d="M38 0V39H219V1461H38V1500H1225V1090H1186Q1164 1197 1106 1281T959 1413T752 1461H585V39H732Q868 39 966 89T1124 231T1206 450H1245V0H38ZM889 512Q867 579 825 634T729 723T619 757H532V795H619Q675 795 728
825T824 909T889 1030H929V512H889ZM889 1683Q838 1683 802 1719T765 1807Q765 1858 801 1894T889 1931Q940 1931 976 1895T1013 1807Q1013 1756 977 1720T889 1683ZM489 1683Q438 1683 402 1719T366 1807Q366 1858 402 1894T490 1931Q541 1931 577 1895T614 1807Q614
1756 578 1720T489 1683Z" />
<glyph unicode="&#xcc;" horiz-adv-x="901" d="M38 0V39H259V1461H38V1500H864V1461H624V39H864V0H38ZM536 1673L260 1745Q197 1757 162 1798T122 1889T143 1978Q165 2011 212 2025T310 2024T396 1948L556 1699L536 1673Z" />
<glyph unicode="&#xcd;" horiz-adv-x="901" d="M38 0V39H259V1461H38V1500H864V1461H624V39H864V0H38ZM341 1673L322 1699L482 1948Q516 2007 567 2023T665 2026T735 1978Q762 1939 757 1889T716 1798T618 1745L341 1673Z" />
<glyph unicode="&#xce;" horiz-adv-x="901" d="M38 0V39H259V1461H38V1500H864V1461H624V39H864V0H38ZM373 1697L353 1716L603 2009H791L1041 1716L1021 1697L696 1846L373 1697Z" />
<glyph unicode="&#xcf;" horiz-adv-x="901" d="M38 0V39H259V1461H38V1500H864V1461H624V39H864V0H38ZM896 1683Q845 1683 809 1719T772 1807Q772 1858 808 1894T896 1931Q947 1931 983 1895T1020 1807Q1020 1756 984 1720T896 1683ZM496 1683Q445 1683 409 1719T373
1807Q373 1858 409 1894T497 1931Q548 1931 584 1895T621 1807Q621 1756 585 1720T496 1683Z" />
<glyph unicode="&#xd0;" horiz-adv-x="1581" d="M51 731V769H819V731H51ZM716 1500Q960 1500 1134 1408T1401 1147T1494 750Q1494 579 1439 441T1281 205T1035 53T716 0H38V39H219V1461H38V1500H716ZM585 39H716Q821 39 892 92T1007 241T1069 467T1089 750Q1089
903 1067 1032T1000 1258T884 1408T716 1461H585V39Z" />
<glyph unicode="&#xd1;" horiz-adv-x="1573" d="M284 1500V39H513V0H38V39H243V1461H38V1500H284ZM1536 1500V1461H1326V-20H1271L256 1500H690L1285 605V1461H1062V1500H1536ZM976 1651Q913 1651 867 1674T781 1729T701 1784T607 1808Q557 1808 529 1777T501
1700H461Q461 1785 481 1856T546 1970T662 2013Q728 2013 773 1989T854 1934T926 1879T1011 1855Q1063 1855 1090 1886T1118 1963H1157Q1157 1869 1146 1799T1096 1690T976 1651Z" />
<glyph unicode="&#xd2;" horiz-adv-x="1572" d="M787 -20Q624 -20 495 37T275 199T136 444T88 750Q88 915 138 1055T281 1300T502 1462T787 1520Q943 1520 1071 1463T1292 1301T1435 1056T1485 750Q1485 585 1438 445T1299 200T1079 38T787 -20ZM787 17Q879 17
936 69T1025 219T1068 451T1080 750Q1080 914 1066 1048T1018 1280T929 1430T787 1483Q703 1483 646 1431T556 1281T509 1049T494 750Q494 586 505 452T548 220T637 70T787 17ZM884 1673L608 1745Q545 1757 510 1798T470 1889T491 1978Q513 2011 560 2025T658 2024T744
1948L904 1699L884 1673Z" />
<glyph unicode="&#xd3;" horiz-adv-x="1572" d="M787 -20Q624 -20 495 37T275 199T136 444T88 750Q88 915 138 1055T281 1300T502 1462T787 1520Q943 1520 1071 1463T1292 1301T1435 1056T1485 750Q1485 585 1438 445T1299 200T1079 38T787 -20ZM787 17Q879 17
936 69T1025 219T1068 451T1080 750Q1080 914 1066 1048T1018 1280T929 1430T787 1483Q703 1483 646 1431T556 1281T509 1049T494 750Q494 586 505 452T548 220T637 70T787 17ZM688 1673L669 1699L829 1948Q863 2007 914 2023T1012 2026T1082 1978Q1109 1939 1104
1889T1063 1798T965 1745L688 1673Z" />
<glyph unicode="&#xd4;" horiz-adv-x="1572" d="M787 -20Q624 -20 495 37T275 199T136 444T88 750Q88 915 138 1055T281 1300T502 1462T787 1520Q943 1520 1071 1463T1292 1301T1435 1056T1485 750Q1485 585 1438 445T1299 200T1079 38T787 -20ZM787 17Q879 17
936 69T1025 219T1068 451T1080 750Q1080 914 1066 1048T1018 1280T929 1430T787 1483Q703 1483 646 1431T556 1281T509 1049T494 750Q494 586 505 452T548 220T637 70T787 17ZM465 1697L445 1716L695 2009H883L1133 1716L1113 1697L788 1846L465 1697Z" />
<glyph unicode="&#xd5;" horiz-adv-x="1572" d="M787 -20Q624 -20 495 37T275 199T136 444T88 750Q88 915 138 1055T281 1300T502 1462T787 1520Q943 1520 1071 1463T1292 1301T1435 1056T1485 750Q1485 585 1438 445T1299 200T1079 38T787 -20ZM787 17Q879 17
936 69T1025 219T1068 451T1080 750Q1080 914 1066 1048T1018 1280T929 1430T787 1483Q703 1483 646 1431T556 1281T509 1049T494 750Q494 586 505 452T548 220T637 70T787 17ZM951 1651Q888 1651 842 1674T756 1729T676 1784T582 1808Q532 1808 504 1777T476 1700H436Q436
1785 456 1856T521 1970T637 2013Q703 2013 748 1989T829 1934T901 1879T986 1855Q1038 1855 1065 1886T1093 1963H1132Q1132 1869 1121 1799T1071 1690T951 1651Z" />
<glyph unicode="&#xd6;" horiz-adv-x="1572" d="M787 -20Q624 -20 495 37T275 199T136 444T88 750Q88 915 138 1055T281 1300T502 1462T787 1520Q943 1520 1071 1463T1292 1301T1435 1056T1485 750Q1485 585 1438 445T1299 200T1079 38T787 -20ZM787 17Q879 17
936 69T1025 219T1068 451T1080 750Q1080 914 1066 1048T1018 1280T929 1430T787 1483Q703 1483 646 1431T556 1281T509 1049T494 750Q494 586 505 452T548 220T637 70T787 17ZM987 1683Q936 1683 900 1719T863 1807Q863 1858 899 1894T987 1931Q1038 1931 1074
1895T1111 1807Q1111 1756 1075 1720T987 1683ZM587 1683Q536 1683 500 1719T464 1807Q464 1858 500 1894T588 1931Q639 1931 675 1895T712 1807Q712 1756 676 1720T587 1683Z" />
<glyph unicode="&#xd7;" horiz-adv-x="963" d="M425 467L127 765L436 1074L734 776L425 467ZM435 467L127 776L425 1074L733 765L435 467Z" />
<glyph unicode="&#xd8;" horiz-adv-x="1572" d="M344 -200L1202 1661H1241L383 -200H344ZM787 -20Q624 -20 495 37T275 199T136 444T88 750Q88 915 138 1055T281 1300T502 1462T787 1520Q943 1520 1071 1463T1292 1301T1435 1056T1485 750Q1485 585 1438 445T1299
200T1079 38T787 -20ZM787 17Q879 17 936 69T1025 219T1068 451T1080 750Q1080 914 1066 1048T1018 1280T929 1430T787 1483Q703 1483 646 1431T556 1281T509 1049T494 750Q494 586 505 452T548 220T637 70T787 17Z" />
<glyph unicode="&#xd9;" horiz-adv-x="1493" d="M1453 1500V1461H1265V460Q1265 213 1144 92T775 -29Q483 -29 350 86T217 460V1461H36V1500H783V1461H583V480Q583 381 594 299T635 156T722 63T870 29Q972 29 1052 71T1178 207T1225 460V1461H1045V1500H1453ZM934
1673L658 1745Q595 1757 560 1798T520 1889T541 1978Q563 2011 610 2025T708 2024T794 1948L954 1699L934 1673Z" />
<glyph unicode="&#xda;" horiz-adv-x="1493" d="M1453 1500V1461H1265V460Q1265 213 1144 92T775 -29Q483 -29 350 86T217 460V1461H36V1500H783V1461H583V480Q583 381 594 299T635 156T722 63T870 29Q972 29 1052 71T1178 207T1225 460V1461H1045V1500H1453ZM739
1673L720 1699L880 1948Q914 2007 965 2023T1063 2026T1133 1978Q1160 1939 1155 1889T1114 1798T1016 1745L739 1673Z" />
<glyph unicode="&#xdb;" horiz-adv-x="1493" d="M1453 1500V1461H1265V460Q1265 213 1144 92T775 -29Q483 -29 350 86T217 460V1461H36V1500H783V1461H583V480Q583 381 594 299T635 156T722 63T870 29Q972 29 1052 71T1178 207T1225 460V1461H1045V1500H1453ZM515
1697L495 1716L745 2009H933L1183 1716L1163 1697L838 1846L515 1697Z" />
<glyph unicode="&#xdc;" horiz-adv-x="1493" d="M1453 1500V1461H1265V460Q1265 213 1144 92T775 -29Q483 -29 350 86T217 460V1461H36V1500H783V1461H583V480Q583 381 594 299T635 156T722 63T870 29Q972 29 1052 71T1178 207T1225 460V1461H1045V1500H1453ZM1037
1683Q986 1683 950 1719T913 1807Q913 1858 949 1894T1037 1931Q1088 1931 1124 1895T1161 1807Q1161 1756 1125 1720T1037 1683ZM637 1683Q586 1683 550 1719T514 1807Q514 1858 550 1894T638 1931Q689 1931 725 1895T762 1807Q762 1756 726 1720T637 1683Z" />
<glyph unicode="&#xdd;" horiz-adv-x="1512" d="M413 0V39H592V720L170 1461H26V1500H782V1461H595L943 811L1275 1461H1067V1500H1484V1461H1322L958 754V39H1158V0H413ZM732 1673L713 1699L873 1948Q907 2007 958 2023T1056 2026T1126 1978Q1153 1939 1148 1889T1107
1798T1009 1745L732 1673Z" />
<glyph unicode="&#xde;" horiz-adv-x="1399" d="M535 360V400H693Q765 400 812 433T886 523T924 646T935 780Q935 846 924 913T886 1037T812 1127T693 1161H535V1200H796Q1066 1200 1198 1087T1331 780Q1331 585 1199 473T796 360H535ZM28 0V39H756V0H28ZM210
0V1500H576V0H210ZM28 1461V1500H756V1461H28Z" />
<glyph unicode="&#xdf;" horiz-adv-x="1625" d="M210 0V982Q210 1123 267 1224T422 1391T640 1488T885 1520Q998 1520 1105 1495T1299 1422T1436 1309T1487 1162Q1487 1047 1415 968T1203 848T862 806V830Q937 830 985 860T1060 939T1097 1041T1108 1143Q1108
1197 1097 1256T1059 1367T986 1451T870 1484Q776 1484 716 1443T624 1330T579 1163T567 962V0H210ZM29 0V39H702V0H29ZM1070 -20Q886 -20 788 76T690 337Q690 421 745 477T880 534Q953 534 1007 483T1061 356Q1061 304 1034 264T965 202T874 180Q833 180 792 201T722
258T692 337H730Q730 234 769 166T868 64T987 30Q1046 30 1082 56T1136 127T1161 221T1168 320Q1168 391 1159 472T1120 626T1029 745T862 792V816Q1043 816 1172 781T1384 684T1506 539T1546 357Q1546 263 1505 192T1395 74T1242 4T1070 -20Z" />
<glyph unicode="&#xe0;" horiz-adv-x="1213" d="M914 -20Q841 -20 785 -1T698 58T667 159V609Q667 681 652 747T596 855T475 898Q434 898 385 889T292 858T220 803T191 717H144Q144 785 197 828T324 871Q399 871 455 833T511 721Q511 645 455 604T324 563Q245
563 194 605T142 717Q142 778 176 819T266 887T391 924T528 936Q687 936 789 896T942 782T992 609V134Q992 100 1006 77T1058 54Q1082 54 1117 72T1175 134L1201 114Q1171 48 1094 14T914 -20ZM357 -20Q227 -20 150 46T72 227Q72 361 188 437T518 514H760V480H612Q542
480 500 447T439 364T420 267Q420 220 431 185T464 130T520 109Q556 109 589 135T645 218T667 362H693Q693 245 651 159T534 27T357 -20ZM685 1093L409 1165Q346 1177 311 1218T271 1309T292 1398Q314 1431 361 1445T459 1444T545 1368L705 1119L685 1093Z" />
<glyph unicode="&#xe1;" horiz-adv-x="1213" d="M914 -20Q841 -20 785 -1T698 58T667 159V609Q667 681 652 747T596 855T475 898Q434 898 385 889T292 858T220 803T191 717H144Q144 785 197 828T324 871Q399 871 455 833T511 721Q511 645 455 604T324 563Q245
563 194 605T142 717Q142 778 176 819T266 887T391 924T528 936Q687 936 789 896T942 782T992 609V134Q992 100 1006 77T1058 54Q1082 54 1117 72T1175 134L1201 114Q1171 48 1094 14T914 -20ZM357 -20Q227 -20 150 46T72 227Q72 361 188 437T518 514H760V480H612Q542
480 500 447T439 364T420 267Q420 220 431 185T464 130T520 109Q556 109 589 135T645 218T667 362H693Q693 245 651 159T534 27T357 -20ZM490 1093L471 1119L631 1368Q665 1427 716 1443T814 1446T884 1398Q911 1359 906 1309T865 1218T767 1165L490 1093Z" />
<glyph unicode="&#xe2;" horiz-adv-x="1213" d="M914 -20Q841 -20 785 -1T698 58T667 159V609Q667 681 652 747T596 855T475 898Q434 898 385 889T292 858T220 803T191 717H144Q144 785 197 828T324 871Q399 871 455 833T511 721Q511 645 455 604T324 563Q245
563 194 605T142 717Q142 778 176 819T266 887T391 924T528 936Q687 936 789 896T942 782T992 609V134Q992 100 1006 77T1058 54Q1082 54 1117 72T1175 134L1201 114Q1171 48 1094 14T914 -20ZM357 -20Q227 -20 150 46T72 227Q72 361 188 437T518 514H760V480H612Q542
480 500 447T439 364T420 267Q420 220 431 185T464 130T520 109Q556 109 589 135T645 218T667 362H693Q693 245 651 159T534 27T357 -20ZM266 1117L246 1136L496 1429H684L934 1136L914 1117L589 1266L266 1117Z" />
<glyph unicode="&#xe3;" horiz-adv-x="1213" d="M914 -20Q841 -20 785 -1T698 58T667 159V609Q667 681 652 747T596 855T475 898Q434 898 385 889T292 858T220 803T191 717H144Q144 785 197 828T324 871Q399 871 455 833T511 721Q511 645 455 604T324 563Q245
563 194 605T142 717Q142 778 176 819T266 887T391 924T528 936Q687 936 789 896T942 782T992 609V134Q992 100 1006 77T1058 54Q1082 54 1117 72T1175 134L1201 114Q1171 48 1094 14T914 -20ZM357 -20Q227 -20 150 46T72 227Q72 361 188 437T518 514H760V480H612Q542
480 500 447T439 364T420 267Q420 220 431 185T464 130T520 109Q556 109 589 135T645 218T667 362H693Q693 245 651 159T534 27T357 -20ZM753 1071Q690 1071 644 1094T558 1149T478 1204T384 1228Q334 1228 306 1197T278 1120H238Q238 1205 258 1276T323 1390T439
1433Q505 1433 550 1409T631 1354T703 1299T788 1275Q840 1275 867 1306T895 1383H934Q934 1289 923 1219T873 1110T753 1071Z" />
<glyph unicode="&#xe4;" horiz-adv-x="1213" d="M914 -20Q841 -20 785 -1T698 58T667 159V609Q667 681 652 747T596 855T475 898Q434 898 385 889T292 858T220 803T191 717H144Q144 785 197 828T324 871Q399 871 455 833T511 721Q511 645 455 604T324 563Q245
563 194 605T142 717Q142 778 176 819T266 887T391 924T528 936Q687 936 789 896T942 782T992 609V134Q992 100 1006 77T1058 54Q1082 54 1117 72T1175 134L1201 114Q1171 48 1094 14T914 -20ZM357 -20Q227 -20 150 46T72 227Q72 361 188 437T518 514H760V480H612Q542
480 500 447T439 364T420 267Q420 220 431 185T464 130T520 109Q556 109 589 135T645 218T667 362H693Q693 245 651 159T534 27T357 -20ZM789 1103Q738 1103 702 1139T665 1227Q665 1278 701 1314T789 1351Q840 1351 876 1315T913 1227Q913 1176 877 1140T789 1103ZM389
1103Q338 1103 302 1139T266 1227Q266 1278 302 1314T390 1351Q441 1351 477 1315T514 1227Q514 1176 478 1140T389 1103Z" />
<glyph unicode="&#xe5;" horiz-adv-x="1213" d="M914 -20Q841 -20 785 -1T698 58T667 159V609Q667 681 652 747T596 855T475 898Q434 898 385 889T292 858T220 803T191 717H144Q144 785 197 828T324 871Q399 871 455 833T511 721Q511 645 455 604T324 563Q245
563 194 605T142 717Q142 778 176 819T266 887T391 924T528 936Q687 936 789 896T942 782T992 609V134Q992 100 1006 77T1058 54Q1082 54 1117 72T1175 134L1201 114Q1171 48 1094 14T914 -20ZM357 -20Q227 -20 150 46T72 227Q72 361 188 437T518 514H760V480H612Q542
480 500 447T439 364T420 267Q420 220 431 185T464 130T520 109Q556 109 589 135T645 218T667 362H693Q693 245 651 159T534 27T357 -20ZM589 1100Q490 1100 435 1152T380 1280Q380 1357 435 1408T589 1460Q688 1460 743 1409T798 1280Q798 1204 743 1152T589 1100ZM589
1140Q611 1140 625 1155T647 1201T654 1280Q654 1328 647 1359T626 1405T589 1421Q567 1421 553 1406T531 1359T524 1280Q524 1232 531 1202T552 1156T589 1140Z" />
<glyph unicode="&#xe6;" horiz-adv-x="1752" d="M433 -20Q374 -20 311 -8T194 33T107 109T74 227Q74 311 127 376T282 479T525 516H664V609Q664 659 656 710T627 803T569 871T473 897Q442 897 407 891T338 872T278 838T237 786Q251 817 281 837T343 863Q414 863
460 822T507 721Q507 645 447 604T316 563Q243 563 192 605T140 717Q140 798 197 846T344 915T528 936Q633 936 707 911T830 844T905 748L878 743Q931 840 1024 890T1237 941Q1385 941 1484 881T1633 723T1684 517H1101Q1101 507 1101 497T1101 475Q1101 379 1109
298T1140 158T1204 65T1309 32Q1433 32 1522 102T1648 281H1689Q1650 152 1541 67T1244 -19Q1116 -19 1017 39T866 210L894 208Q853 129 778 79T612 4T433 -20ZM531 40Q567 40 597 74T646 180T664 361V481H606Q541 481 501 447T442 358T423 242Q423 139 451 90T531
40ZM1103 556H1347Q1346 620 1343 682T1330 794T1297 873T1237 902Q1189 902 1161 856T1119 732T1103 556Z" />
<glyph unicode="&#xe7;" horiz-adv-x="1071" d="M569 -20Q431 -20 318 30T137 186T69 460Q69 608 128 715T298 881T569 939Q693 939 787 903T935 804T988 667Q988 586 934 539T807 491Q764 491 721 510T649 568T620 665Q620 745 677 790T807 835Q877 835 931 791T986
667H948Q948 717 920 758T845 830T747 877T648 894Q583 894 545 853T487 748T461 607T455 460Q455 374 464 299T497 166T560 77T664 44Q739 44 794 74T886 158T947 280H988Q949 144 849 62T569 -20ZM366 -251V-212Q455 -212 494 -181T533 -94Q533 -43 508 -17T443
17T360 26L535 260H584L469 106Q571 103 643 86T753 35T792 -56Q792 -106 754 -151T623 -223T366 -251Z" />
<glyph unicode="&#xe8;" horiz-adv-x="1075" d="M567 -20Q422 -20 310 34T133 196T68 460Q68 617 130 724T304 885T560 940Q708 940 806 879T955 721T1005 515H201V555H669Q668 619 665 680T652 792T620 871T560 901Q519 901 493 870T451 781T430 650T424 489Q424
387 432 303T463 157T527 63T632 30Q756 30 844 100T970 279H1011Q972 152 864 66T567 -20ZM657 1093L381 1165Q318 1177 283 1218T243 1309T264 1398Q286 1431 333 1445T431 1444T517 1368L677 1119L657 1093Z" />
<glyph unicode="&#xe9;" horiz-adv-x="1075" d="M567 -20Q422 -20 310 34T133 196T68 460Q68 617 130 724T304 885T560 940Q708 940 806 879T955 721T1005 515H201V555H669Q668 619 665 680T652 792T620 871T560 901Q519 901 493 870T451 781T430 650T424 489Q424
387 432 303T463 157T527 63T632 30Q756 30 844 100T970 279H1011Q972 152 864 66T567 -20ZM461 1093L442 1119L602 1368Q636 1427 687 1443T785 1446T855 1398Q882 1359 877 1309T836 1218T738 1165L461 1093Z" />
<glyph unicode="&#xea;" horiz-adv-x="1075" d="M567 -20Q422 -20 310 34T133 196T68 460Q68 617 130 724T304 885T560 940Q708 940 806 879T955 721T1005 515H201V555H669Q668 619 665 680T652 792T620 871T560 901Q519 901 493 870T451 781T430 650T424 489Q424
387 432 303T463 157T527 63T632 30Q756 30 844 100T970 279H1011Q972 152 864 66T567 -20ZM238 1117L218 1136L468 1429H656L906 1136L886 1117L561 1266L238 1117Z" />
<glyph unicode="&#xeb;" horiz-adv-x="1075" d="M567 -20Q422 -20 310 34T133 196T68 460Q68 617 130 724T304 885T560 940Q708 940 806 879T955 721T1005 515H201V555H669Q668 619 665 680T652 792T620 871T560 901Q519 901 493 870T451 781T430 650T424 489Q424
387 432 303T463 157T527 63T632 30Q756 30 844 100T970 279H1011Q972 152 864 66T567 -20ZM760 1103Q709 1103 673 1139T636 1227Q636 1278 672 1314T760 1351Q811 1351 847 1315T884 1227Q884 1176 848 1140T760 1103ZM360 1103Q309 1103 273 1139T237 1227Q237
1278 273 1314T361 1351Q412 1351 448 1315T485 1227Q485 1176 449 1140T360 1103Z" />
<glyph unicode="&#xec;" horiz-adv-x="685" d="M512 920V39H649V0H48V39H185V881H48V920H512ZM445 1093L169 1165Q106 1177 71 1218T31 1309T52 1398Q74 1431 121 1445T219 1444T305 1368L465 1119L445 1093Z" />
<glyph unicode="&#xed;" horiz-adv-x="685" d="M512 920V39H649V0H48V39H185V881H48V920H512ZM250 1093L231 1119L391 1368Q425 1427 476 1443T574 1446T644 1398Q671 1359 666 1309T625 1218T527 1165L250 1093Z" />
<glyph unicode="&#xee;" horiz-adv-x="685" d="M512 920V39H649V0H48V39H185V881H48V920H512ZM26 1117L6 1136L256 1429H444L694 1136L674 1117L349 1266L26 1117Z" />
<glyph unicode="&#xef;" horiz-adv-x="685" d="M512 920V39H649V0H48V39H185V881H48V920H512ZM548 1103Q497 1103 461 1139T424 1227Q424 1278 460 1314T548 1351Q599 1351 635 1315T672 1227Q672 1176 636 1140T548 1103ZM148 1103Q97 1103 61 1139T25 1227Q25
1278 61 1314T149 1351Q200 1351 236 1315T273 1227Q273 1176 237 1140T148 1103Z" />
<glyph unicode="&#xf0;" horiz-adv-x="1265" d="M605 -20Q440 -20 318 47T128 232T60 500Q60 628 102 720T214 871T370 958T543 987Q649 987 707 933T787 782T810 560H776Q776 700 755 779T696 891T609 924Q569 924 540 906T490 840T460 711T450 500Q450 387 455
298T476 147T520 52T599 19Q648 19 682 55T737 161T767 331T776 560L778 711Q778 814 754 922T683 1131T567 1310T408 1436T210 1483V1520Q414 1520 588 1453T892 1263T1094 977T1166 620Q1166 410 1095 268T898 53T605 -20ZM279 1221V1260H1192V1221H279Z" />
<glyph unicode="&#xf1;" horiz-adv-x="1285" d="M501 920V39H594V0H37V39H175V881H37V920H501ZM1111 639V39H1248V0H692V39H785V616Q785 700 779 747T754 812T700 831Q655 831 618 798T555 710T515 586T501 446L468 445Q468 519 484 604T539 766T648 891T824 940Q936
940 998 901T1085 794T1111 639ZM808 1071Q745 1071 699 1094T613 1149T533 1204T439 1228Q389 1228 361 1197T333 1120H293Q293 1205 313 1276T378 1390T494 1433Q560 1433 605 1409T686 1354T758 1299T843 1275Q895 1275 922 1306T950 1383H989Q989 1289 978
1219T928 1110T808 1071Z" />
<glyph unicode="&#xf2;" horiz-adv-x="1139" d="M570 -20Q414 -20 302 46T129 221T68 460Q68 590 128 699T301 874T570 940Q726 940 838 874T1011 699T1072 460Q1072 330 1011 221T838 46T570 -20ZM570 19Q613 19 644 51T694 141T722 281T732 460Q732 558 723
639T694 778T644 869T570 901Q527 901 497 869T447 779T418 639T409 460Q409 362 418 281T446 142T496 51T570 19ZM666 1093L390 1165Q327 1177 292 1218T252 1309T273 1398Q295 1431 342 1445T440 1444T526 1368L686 1119L666 1093Z" />
<glyph unicode="&#xf3;" horiz-adv-x="1139" d="M570 -20Q414 -20 302 46T129 221T68 460Q68 590 128 699T301 874T570 940Q726 940 838 874T1011 699T1072 460Q1072 330 1011 221T838 46T570 -20ZM570 19Q613 19 644 51T694 141T722 281T732 460Q732 558 723
639T694 778T644 869T570 901Q527 901 497 869T447 779T418 639T409 460Q409 362 418 281T446 142T496 51T570 19ZM471 1093L452 1119L612 1368Q646 1427 697 1443T795 1446T865 1398Q892 1359 887 1309T846 1218T748 1165L471 1093Z" />
<glyph unicode="&#xf4;" horiz-adv-x="1139" d="M570 -20Q414 -20 302 46T129 221T68 460Q68 590 128 699T301 874T570 940Q726 940 838 874T1011 699T1072 460Q1072 330 1011 221T838 46T570 -20ZM570 19Q613 19 644 51T694 141T722 281T732 460Q732 558 723
639T694 778T644 869T570 901Q527 901 497 869T447 779T418 639T409 460Q409 362 418 281T446 142T496 51T570 19ZM247 1117L227 1136L477 1429H665L915 1136L895 1117L570 1266L247 1117Z" />
<glyph unicode="&#xf5;" horiz-adv-x="1139" d="M570 -20Q414 -20 302 46T129 221T68 460Q68 590 128 699T301 874T570 940Q726 940 838 874T1011 699T1072 460Q1072 330 1011 221T838 46T570 -20ZM570 19Q613 19 644 51T694 141T722 281T732 460Q732 558 723
639T694 778T644 869T570 901Q527 901 497 869T447 779T418 639T409 460Q409 362 418 281T446 142T496 51T570 19ZM733 1071Q670 1071 624 1094T538 1149T458 1204T364 1228Q314 1228 286 1197T258 1120H218Q218 1205 238 1276T303 1390T419 1433Q485 1433 530
1409T611 1354T683 1299T768 1275Q820 1275 847 1306T875 1383H914Q914 1289 903 1219T853 1110T733 1071Z" />
<glyph unicode="&#xf6;" horiz-adv-x="1139" d="M570 -20Q414 -20 302 46T129 221T68 460Q68 590 128 699T301 874T570 940Q726 940 838 874T1011 699T1072 460Q1072 330 1011 221T838 46T570 -20ZM570 19Q613 19 644 51T694 141T722 281T732 460Q732 558 723
639T694 778T644 869T570 901Q527 901 497 869T447 779T418 639T409 460Q409 362 418 281T446 142T496 51T570 19ZM770 1103Q719 1103 683 1139T646 1227Q646 1278 682 1314T770 1351Q821 1351 857 1315T894 1227Q894 1176 858 1140T770 1103ZM370 1103Q319 1103
283 1139T247 1227Q247 1278 283 1314T371 1351Q422 1351 458 1315T495 1227Q495 1176 459 1140T370 1103Z" />
<glyph unicode="&#xf7;" horiz-adv-x="1119" d="M561 946Q494 946 445 994T395 1110Q395 1178 444 1226T561 1274Q630 1274 677 1226T724 1110Q724 1043 677 995T561 946ZM100 751V789H1020V751H100ZM561 236Q494 236 445 284T395 400Q395 468 444 516T561 564Q630
564 677 516T724 400Q724 333 677 285T561 236Z" />
<glyph unicode="&#xf8;" horiz-adv-x="1139" d="M118 -246L976 1158H1015L157 -246H118ZM570 -20Q414 -20 302 46T129 221T68 460Q68 590 128 699T301 874T570 940Q726 940 838 874T1011 699T1072 460Q1072 330 1011 221T838 46T570 -20ZM570 19Q613 19 644 51T694
141T722 281T732 460Q732 558 723 639T694 778T644 869T570 901Q527 901 497 869T447 779T418 639T409 460Q409 362 418 281T446 142T496 51T570 19Z" />
<glyph unicode="&#xf9;" horiz-adv-x="1286" d="M462 -20Q351 -20 289 19T201 127T175 282V881H37V920H502V304Q502 220 508 173T533 108T587 89Q633 89 669 122T732 210T771 334T785 474L817 475Q817 401 802 316T748 154T640 29T462 -20ZM785 0V881H660V920H1112V39H1249V0H785ZM701
1093L425 1165Q362 1177 327 1218T287 1309T308 1398Q330 1431 377 1445T475 1444T561 1368L721 1119L701 1093Z" />
<glyph unicode="&#xfa;" horiz-adv-x="1286" d="M462 -20Q351 -20 289 19T201 127T175 282V881H37V920H502V304Q502 220 508 173T533 108T587 89Q633 89 669 122T732 210T771 334T785 474L817 475Q817 401 802 316T748 154T640 29T462 -20ZM785 0V881H660V920H1112V39H1249V0H785ZM506
1093L487 1119L647 1368Q681 1427 732 1443T830 1446T900 1398Q927 1359 922 1309T881 1218T783 1165L506 1093Z" />
<glyph unicode="&#xfb;" horiz-adv-x="1286" d="M462 -20Q351 -20 289 19T201 127T175 282V881H37V920H502V304Q502 220 508 173T533 108T587 89Q633 89 669 122T732 210T771 334T785 474L817 475Q817 401 802 316T748 154T640 29T462 -20ZM785 0V881H660V920H1112V39H1249V0H785ZM282
1117L262 1136L512 1429H700L950 1136L930 1117L605 1266L282 1117Z" />
<glyph unicode="&#xfc;" horiz-adv-x="1286" d="M462 -20Q351 -20 289 19T201 127T175 282V881H37V920H502V304Q502 220 508 173T533 108T587 89Q633 89 669 122T732 210T771 334T785 474L817 475Q817 401 802 316T748 154T640 29T462 -20ZM785 0V881H660V920H1112V39H1249V0H785ZM804
1103Q753 1103 717 1139T680 1227Q680 1278 716 1314T804 1351Q855 1351 891 1315T928 1227Q928 1176 892 1140T804 1103ZM404 1103Q353 1103 317 1139T281 1227Q281 1278 317 1314T405 1351Q456 1351 492 1315T529 1227Q529 1176 493 1140T404 1103Z" />
<glyph unicode="&#xfd;" horiz-adv-x="1252" d="M528 881L820 315L630 -50L131 881H-12V920H726V881H528ZM1271 920V881H1117L512 -355Q477 -426 427 -473T299 -521Q256 -521 214 -502T144 -444T116 -349Q116 -298 141 -257T208 -192T300 -168Q345 -168 384 -191T447
-255T470 -347L1070 881H876V920H1271ZM581 1093L562 1119L722 1368Q756 1427 807 1443T905 1446T975 1398Q1002 1359 997 1309T956 1218T858 1165L581 1093Z" />
<glyph unicode="&#xfe;" horiz-adv-x="1304" d="M37 -500V-461H177V1461H37V1500H504V650Q536 787 616 862T817 938Q925 938 1021 881T1177 717T1238 460Q1238 310 1178 203T1021 38T817 -20Q697 -20 617 56T504 270V-461H643V-500H37ZM733 48Q779 48 809 90T854
223T869 460Q869 606 854 696T809 827T733 869Q681 869 628 823T540 686T504 460Q504 324 539 233T628 95T733 48Z" />
<glyph unicode="&#xff;" horiz-adv-x="1252" d="M528 881L820 315L630 -50L131 881H-12V920H726V881H528ZM1271 920V881H1117L512 -355Q477 -426 427 -473T299 -521Q256 -521 214 -502T144 -444T116 -349Q116 -298 141 -257T208 -192T300 -168Q345 -168 384 -191T447
-255T470 -347L1070 881H876V920H1271ZM880 1103Q829 1103 793 1139T756 1227Q756 1278 792 1314T880 1351Q931 1351 967 1315T1004 1227Q1004 1176 968 1140T880 1103ZM480 1103Q429 1103 393 1139T357 1227Q357 1278 393 1314T481 1351Q532 1351 568 1315T605
1227Q605 1176 569 1140T480 1103Z" />
<glyph unicode="&#x2013;" horiz-adv-x="1081" d="M119 531V569H961V531H119Z" />
<glyph unicode="&#x2014;" horiz-adv-x="1569" d="M119 531V569H1449V531H119Z" />
<glyph unicode="&#x2018;" horiz-adv-x="604" d="M304 856Q243 856 192 890T108 986T76 1134Q76 1256 132 1352T290 1503T530 1558V1518Q439 1518 361 1490T225 1406T140 1270T123 1087H110Q109 1131 139 1172T217 1241T319 1268Q417 1268 471 1207T526 1062Q526
1007 496 961T415 885T304 856Z" />
<glyph unicode="&#x2019;" horiz-adv-x="604" d="M76 838V878Q166 878 245 906T381 990T466 1126T482 1309H495Q496 1265 467 1224T389 1155T287 1128Q190 1128 135 1190T80 1334Q80 1389 110 1436T191 1511T302 1540Q363 1540 415 1506T498 1410T530 1262Q530
1140 474 1044T316 893T76 838Z" />
<glyph unicode="&#x201a;" horiz-adv-x="677" d="M76 -310V-270Q166 -270 245 -242T381 -158T466 -22T482 161H495Q496 117 467 76T389 7T287 -20Q190 -20 135 42T80 186Q80 241 110 288T191 363T302 392Q363 392 415 358T498 262T530 114Q530 -8 474 -104T316
-255T76 -310Z" />
<glyph unicode="&#x201c;" d="M855 856Q794 856 742 890T659 986T627 1134Q627 1256 683 1352T841 1503T1081 1558V1518Q991 1518 912 1490T776 1406T691 1270T674 1087H661Q661 1131 690 1172T768 1241T870 1268Q968 1268 1022 1207T1077 1062Q1077 1007 1047
961T966 885T855 856ZM304 856Q243 856 192 890T108 986T76 1134Q76 1256 132 1352T290 1503T530 1558V1518Q439 1518 361 1490T225 1406T140 1270T123 1087H110Q109 1131 139 1172T217 1241T319 1268Q417 1268 471 1207T526 1062Q526 1007 496 961T415 885T304
856Z" />
<glyph unicode="&#x201d;" d="M627 839V879Q717 879 796 907T932 991T1017 1126T1033 1310H1046Q1047 1265 1018 1224T940 1155T838 1128Q741 1128 686 1190T631 1334Q631 1389 661 1436T742 1511T853 1540Q914 1540 965 1506T1049 1410T1081 1263Q1081 1140 1025
1045T867 894T627 839ZM76 839V879Q166 879 245 907T381 991T466 1126T482 1310H495Q496 1265 467 1224T389 1155T287 1128Q190 1128 135 1190T80 1334Q80 1389 110 1436T191 1511T302 1540Q363 1540 415 1506T498 1410T530 1263Q530 1140 474 1045T316 894T76
839Z" />
<glyph unicode="&#x201e;" d="M627 -310V-270Q717 -270 796 -242T932 -158T1017 -22T1033 161H1046Q1047 117 1018 76T940 7T838 -20Q741 -20 686 42T631 186Q631 241 661 288T742 363T853 392Q914 392 965 358T1049 262T1081 114Q1081 -8 1025 -104T867 -255T627
-310ZM76 -310V-270Q166 -270 245 -242T381 -158T466 -22T482 161H495Q496 117 467 76T389 7T287 -20Q190 -20 135 42T80 186Q80 241 110 288T191 363T302 392Q363 392 415 358T498 262T530 114Q530 -8 474 -104T316 -255T76 -310Z" />
<glyph unicode="&#x2022;" horiz-adv-x="399" d="M288 610Q230 610 183 638T108 713T80 818Q80 875 108 922T183 998T288 1026Q345 1026 392 998T468 923T496 818Q496 761 468 714T393 638T288 610Z" />
<glyph unicode="&#x2039;" horiz-adv-x="917" d="M798 290L50 757V793L798 1260L818 1241L448 776L818 309L798 290Z" />
<glyph unicode="&#x203a;" horiz-adv-x="917" d="M117 290L98 309L453 774L98 1241L117 1260L867 793V757L117 290Z" />
</font>
</defs>
</svg>
